<svg xmlns="http://www.w3.org/2000/svg" width="24" height="24" viewBox="0 0 24 24">
    <g fill="none" fill-rule="evenodd">
        <g>
            <g>
                <g>
                    <g>
                        <g transform="translate(-402 -85) translate(230 32) translate(91 50) translate(81) translate(0 3)">
                            <circle cx="12" cy="12" r="12" fill="#F27A1A"/>
                            <g fill="#FFF" fill-rule="nonzero">
                                <path d="M5.559 6.393v-3.08H.725c-.4 0-.725.331-.725.739v1.602c0 .408.325.739.725.739H5.56zM11.275 3.313H6.44v3.08h4.834c.4 0 .725-.331.725-.739V4.052c0-.408-.325-.739-.725-.739zM4.167.181C3.958.063 3.722 0 3.483 0c-.51 0-.98.282-1.23.735-.377.69-.133 1.563.545 1.948.168.096.511.223 1.539.223.566 0 1.067-.04 1.089-.041.113-.01.215-.076.27-.177.055-.101.057-.224.005-.327-.155-.306-.959-1.853-1.534-2.18zm.17 2.033c-.9 0-1.152-.104-1.208-.136-.35-.198-.476-.65-.281-1.006.128-.234.372-.38.635-.38.123 0 .245.033.353.094.211.12.639.759 1.008 1.417-.153.006-.327.01-.507.01zM7.663 2.906c1.028 0 1.37-.127 1.54-.223.677-.384.92-1.258.543-1.948C9.498.282 9.026 0 8.516 0c-.238 0-.474.063-.683.181-.575.327-1.38 1.874-1.534 2.18-.053.103-.05.226.005.327.055.102.157.168.27.177.021.002.523.041 1.089.041zm.5-2.12c.109-.061.23-.094.354-.094.263 0 .507.146.635.38.195.356.07.808-.28 1.006-.057.032-.31.136-1.209.136-.18 0-.354-.005-.506-.01.368-.66.796-1.298 1.007-1.418zM9.448 9.036c.103.105.061.262-.07.26l-.833.09-.089.849c.003.132-.152.175-.255.07l-1.76-1.791V13.8h4.415c.26 0 .47-.214.47-.479V7.244H7.688l1.76 1.792zM3.544 10.235l-.089-.85-.834-.09c-.13.003-.172-.154-.07-.259l1.761-1.792H.674v6.077c0 .265.21.479.47.479H5.56V8.514l-1.76 1.792c-.103.105-.258.062-.255-.071z" transform="translate(6 4.8)"/>
                            </g>
                        </g>
                    </g>
                </g>
            </g>
        </g>
    </g>
</svg>
