<svg width="17" height="18" viewBox="0 0 17 18" fill="none" xmlns="http://www.w3.org/2000/svg">
<path d="M16.7528 10.1531H16.7562C16.6882 9.999 16.6315 9.82688 16.593 9.639C16.4581 9.01125 16.5329 8.3565 16.7562 7.84687H16.7528C17.01 7.36537 17.0792 6.7815 16.9001 6.219C16.7199 5.6565 16.3278 5.22562 15.8416 4.9905L15.8438 4.98938C15.6988 4.90388 15.556 4.79813 15.4154 4.671C14.9451 4.24238 14.6267 3.6675 14.5145 3.12188L14.5111 3.12412C14.4465 2.62012 14.2005 2.142 13.7903 1.79775C13.7585 1.77075 13.7257 1.74487 13.6905 1.719C13.2213 1.37025 12.6558 1.25888 12.1266 1.359V1.35675C11.9611 1.37363 11.7843 1.37475 11.5973 1.35562C10.9706 1.29037 10.3813 1.01587 9.9744 0.64125V0.644625C9.60268 0.2475 9.07795 0 8.49996 0C7.9197 0 7.39725 0.2475 7.02665 0.64575L7.02552 0.64125C6.90085 0.756 6.75806 0.864 6.59599 0.959625C6.05087 1.2825 5.41735 1.41413 4.87109 1.3545L4.87335 1.359C4.3441 1.25888 3.77744 1.37025 3.30938 1.719C2.98299 1.95975 2.74726 2.2815 2.61126 2.63925C2.55119 2.7945 2.50926 2.95762 2.48773 3.123L2.48546 3.12188C2.45146 3.28838 2.39706 3.4605 2.32113 3.63487C2.06727 4.22438 1.62981 4.70925 1.15382 4.98825L1.15722 4.9905C0.672159 5.22675 0.278899 5.6565 0.100968 6.219C-0.0803619 6.7815 -0.00896315 7.36537 0.247166 7.84687H0.243766C0.311765 8.00212 0.366164 8.17425 0.406963 8.361C0.540694 8.98988 0.465896 9.64463 0.243766 10.1531H0.247166C-0.00896315 10.6369 -0.0792286 11.2196 0.099835 11.7821C0.278899 12.3446 0.673292 12.7744 1.15722 13.0095L1.15495 13.0118C1.30001 13.0973 1.44395 13.203 1.58334 13.3313C2.0548 13.7588 2.37213 14.3336 2.48546 14.8804L2.48773 14.877C2.50019 14.967 2.51833 15.057 2.54213 15.147C2.65886 15.588 2.91839 15.993 3.30938 16.2821C3.59951 16.4959 3.92704 16.6219 4.26023 16.6624C4.46423 16.6871 4.67162 16.6804 4.87222 16.6421V16.6455C5.03769 16.6275 5.21562 16.6264 5.40148 16.6455C6.02934 16.7119 6.61753 16.9852 7.02439 17.3599L7.02665 17.3554C7.39725 17.7525 7.9197 18 8.49996 18C9.08022 18 9.60381 17.7525 9.97327 17.3554V17.3576C10.0979 17.2429 10.2419 17.136 10.4039 17.0404C10.9491 16.7164 11.5826 16.5859 12.1277 16.6455V16.6421C12.1923 16.6534 12.258 16.6646 12.3249 16.6691C12.7941 16.7096 13.2803 16.5859 13.6917 16.2821C14.0543 16.0121 14.3048 15.6442 14.4317 15.2392C14.4691 15.12 14.4952 14.9996 14.5111 14.877L14.5133 14.8793C14.5473 14.7116 14.6017 14.5395 14.6777 14.3651C14.9327 13.7756 15.3701 13.2908 15.845 13.0118L15.8416 13.0095C16.3278 12.7744 16.7199 12.3435 16.9001 11.7821C17.0792 11.2196 17.01 10.6346 16.7528 10.1531Z" fill="#4A90E2"/>
<path d="M11.5982 6.64428L7.5516 10.6487L5.54897 8.67305C5.24866 8.37494 4.77616 8.37494 4.47546 8.67343C4.17476 8.97193 4.17476 9.44096 4.47546 9.73946L7.00208 12.2475C7.14813 12.3925 7.3331 12.4651 7.53903 12.4651C7.7413 12.4651 7.92394 12.3951 8.08163 12.2542L12.672 7.71048C12.9728 7.41181 12.9728 6.94277 12.6721 6.64428C12.3714 6.34579 11.8989 6.34579 11.5982 6.64428Z" fill="white"/>
</svg>
