<?xml version="1.0" encoding="UTF-8" standalone="no"?>
<!DOCTYPE svg PUBLIC "-//W3C//DTD SVG 1.1//EN" "http://www.w3.org/Graphics/SVG/1.1/DTD/svg11.dtd">
<svg xmlns="http://www.w3.org/2000/svg">
<metadata>Generated by IcoMoon</metadata>
<defs>
<font id="icomoon" horiz-adv-x="1024">
<font-face units-per-em="1024" ascent="960" descent="-64"/>
<missing-glyph horiz-adv-x="1024"/>
<glyph unicode=" " horiz-adv-x="512" d=""/>
<glyph unicode="" glyph-name="refund" horiz-adv-x="1092" d="M354.032 930.817l-341.334-282.624c-16.93-13.996-16.93-40.482 0-54.476l341.334-282.624 4.574-3.278c22.050-12.972 50.996 3.072 50.996 30.514v105.608l15.086-0.682c217.088-11.878 374.1-103.424 482.51-249.788 40.892-55.158 71.748-114.346 94.004-173.534 5.802-15.496 10.718-30.174 14.746-43.692l3.754-13.174c2.73-9.966 4.3-16.862 4.914-20.206 7.646-39.322 61.44-35.908 67.174 0.342l0.478 8.054-0.75 25.394c-1.502 32.29-5.394 73.866-12.766 121.924-15.020 98.442-41.164 195.722-80.964 286.174l-8.876 19.592c-108.818 232.654-293.548 377.174-567.024 391.714l-12.288 0.614v106.906c0 29.422-33.246 45.738-55.57 27.306zM88.474 621.023l252.86 209.374v-68.13c0-19.318 15.292-35.020 34.132-35.020 278.188 0 457.114-137.556 560.060-371.37l13.312-31.88c12.766-32.154 23.756-65.332 33.178-98.986l7.85-30.242-11.948 18.092c-5.256 7.714-10.718 15.36-16.384 23.006-128.888 174.080-321.126 278.8-586.068 278.8l-6.144-0.614c-15.906-2.936-27.988-17.202-27.988-34.406v-67.994l-252.928 209.374z"/>
<glyph unicode="" glyph-name="bagg" d="M908.096 173.807c22.848 0 41.37-18.522 41.37-41.37s-18.522-41.37-41.37-41.37h-559.418c-53.158 0-99.68 41.914-106.152 95.44l-58.39 411.868-33.314 192.896c-1.622 13.152-13.618 24.5-25.492 24.5l-44.012 0.002c-22.412 0.618-40.256 18.964-40.256 41.382s17.848 40.764 40.41 41.384h43.86c53.734 0 100.764-41.918 107.24-95.272l33.22-192.038 58.676-413.954c1.496-12.606 12.9-23.468 24.184-23.468h559.446zM992.196 761.799c21.456-24.206 31.26-58.254 26.976-93.728l-54.236-310.7c-6.404-52.64-52.856-93.754-105.456-93.738l-464.724-34.422c-16.632-1.106-32.308 7.86-39.788 22.754s-5.314 32.822 5.512 45.516c7.194 8.388 17.224 13.438 28.218 14.226l467.728 34.568c13.1 0.068 25.238 10.554 26.788 23.252l54.182 310.666c1.204 10.006-1.698 20.698-7.182 26.92-2.764 3.308-6.872 5.194-11.264 5.13l-596.548 0.002c-22.412 0.618-40.258 18.962-40.258 41.382s17.846 40.764 40.412 41.384h596.394c28.28 0 54.37-11.836 72.988-32.946l0.256-0.27zM357.728-81.483l-0.154-0.002c-41.916 0-75.896 33.98-75.896 75.898s33.98 75.898 76.052 75.894c41.094-1.144 73.812-34.784 73.812-75.894s-32.718-74.752-73.812-75.894zM839.958-81.483c-41.404 1.144-74.124 34.784-74.124 75.894s32.72 74.752 74.124 75.894c41.094-1.144 73.812-34.784 73.812-75.894s-32.72-74.752-73.812-75.894z"/>
<glyph unicode="" glyph-name="heart" horiz-adv-x="1117" d="M620.413 55.739c58.413 39.071 116.265 83.124 169.711 131.243 146.949 132.305 233.409 270.184 233.409 404.013 0 289.265-374.728 348.663-418.907 82.185-8.707-52.517-83.573-52.517-92.279 0.003-44.167 266.473-418.789 207.080-418.789-82.185 0-133.833 86.439-271.712 233.355-404.017 53.433-48.119 111.271-92.171 169.671-131.241 24.067-16.101 45.073-29.303 61.905-39.361 16.836 10.059 37.849 23.261 61.923 39.363zM558.485-85.333c-9.743-0.044-19.156 3.048-26.969 8.512-20.681 11.64-50.589 29.827-86.663 53.961-61.895 41.411-123.225 88.121-180.265 139.489-164.863 148.467-264.588 307.539-264.588 474.365 0 347.863 410.557 457.629 558.491 223.815 147.961 233.815 558.599 124.049 558.599-223.815 0-166.831-99.751-325.904-264.649-474.371-57.053-51.367-118.397-98.077-180.307-139.488-36.081-24.135-65.996-42.321-86.683-53.96-7.812-5.463-17.225-8.555-26.968-8.509z"/>
<glyph unicode="" glyph-name="open-eye" horiz-adv-x="1365" d="M639.14 637.495c231.111 0 445.618-117.632 561.868-305.843 4.056-6.951 5.685-14.635 4.994-21.926 0.697-7.291-0.934-14.975-4.994-21.926-116.248-188.21-330.752-305.842-561.868-305.842s-445.618 117.632-561.868 305.842c-4.162 6.543-5.77 14.366-4.929 21.926-0.841 7.56 0.766 15.383 4.929 21.926 116.248 188.21 330.752 305.843 561.868 305.843zM639.14 568.299c-199.283 0-384.726-96.873-491.286-254.639-0.939-1.253-1.878-2.573-2.818-3.935 0.939-1.363 1.878-2.683 2.818-3.935 106.56-157.766 292.004-254.64 491.286-254.64s384.725 98.258 491.286 254.64c0.939 1.252 1.879 2.573 2.818 3.935-0.939 1.362-1.879 2.683-2.818 3.935-106.56 156.38-292.002 254.639-491.286 254.639zM639.834 516.446c111.173 0 201.933-87.393 207.332-197.226l0.254-10.36c0-111.173-87.393-201.933-197.226-207.332l-10.36-0.254c-111.173 0-201.933 87.393-207.332 197.226l-0.254 10.36c0 111.173 87.393 201.933 197.226 207.332l10.36 0.254zM639.834 355.569l-6.053-0.348c-23.824-2.766-42.726-21.668-45.497-45.497l-0.348-6.053 0.348-6.053c2.766-23.824 21.668-42.726 45.497-45.497l6.053-0.348 6.053 0.348c23.824 2.766 42.726 21.668 45.497 45.497l0.348 6.053-0.348 6.053c-2.766 23.824-21.668 42.726-45.497 45.497l-6.053 0.348zM639.14 871.379c19.375 0 34.596-15.224 34.596-34.596v-107.946c0-19.375-15.224-34.596-34.596-34.596s-34.596 15.224-34.596 34.596v107.946c0 19.375 15.224 34.596 34.596 34.596zM853.653 845.080c2.767 0 5.536 0 8.288-1.385 18.003-5.536 29.075-23.523 24.923-42.901l-27.677-105.176c-4.165-19.375-23.523-29.063-41.516-24.911-18.003 5.536-29.075 23.523-24.92 42.901l27.677 105.176c4.165 15.225 18.003 26.298 33.227 26.298zM1055.692 760.662c5.551 0 12.47-1.385 16.605-4.152 16.622-9.686 22.156-30.444 12.47-47.053l-53.986-94.107c-9.686-16.605-30.444-23.523-47.040-13.838-16.605 9.686-22.156 30.444-12.454 47.053l53.972 94.107c6.92 11.071 17.992 17.99 30.432 17.99zM1227.304 626.423c9.686 0 17.992-2.767 24.911-9.686 13.839-13.839 13.839-35.982 0-48.434l-77.497-76.116c-13.839-13.839-35.994-13.839-48.434 0-13.839 13.838-13.839 35.982 0 48.434l76.116 76.116c6.92 6.919 15.225 9.686 24.911 9.686zM424.636 845.085c15.224 0 29.063-9.686 33.215-26.308l27.677-105.163c5.536-17.992-5.536-37.365-24.911-42.901-17.99-4.152-37.365 5.536-41.516 24.911l-27.677 105.176c-5.536 17.978 5.536 37.365 24.911 42.901 2.767 1.385 5.536 1.385 8.305 1.385zM222.586 760.662c12.454 0 23.523-5.536 30.444-17.99l53.972-94.107c9.686-16.605 4.152-37.365-12.454-47.053s-37.365-2.767-47.053 13.838l-53.972 94.107c-9.686 16.605-4.152 37.365 12.454 47.053 5.536 2.767 11.071 4.152 16.605 4.152zM52.359 626.423c9.686 0 17.99-2.767 24.911-9.686l76.116-76.116c12.454-12.454 12.454-34.596-1.385-48.434s-35.982-13.839-48.434 0l-76.116 76.116c-13.838 13.839-13.838 35.982 0 48.434 6.919 6.919 15.224 9.686 24.911 9.686z"/>
<glyph unicode="" glyph-name="trash" horiz-adv-x="819" d="M549.425 572.138c-13.002 0-23.54-10.538-23.54-23.54v-444.91c0-12.993 10.538-23.54 23.54-23.54s23.54 10.547 23.54 23.54v444.91c0 13.002-10.538 23.54-23.54 23.54zM271.651 572.138c-13.002 0-23.54-10.538-23.54-23.54v-444.91c0-12.993 10.538-23.54 23.54-23.54s23.54 10.547 23.54 23.54v444.91c0 13.002-10.538 23.54-23.54 23.54zM69.205 637.067v-579.982c0-34.28 12.57-66.474 34.529-89.572 21.857-23.163 52.276-36.313 84.11-36.368h445.389c31.844 0.055 62.262 13.205 84.11 36.368 21.959 23.099 34.529 55.292 34.529 89.572v579.982c43.651 11.586 71.936 53.756 66.097 98.547-5.848 44.782-44 78.28-89.168 78.29h-120.524v29.425c0.138 24.745-9.646 48.506-27.163 65.986-17.517 17.471-41.315 27.2-66.060 26.998h-209.030c-24.745 0.202-48.543-9.526-66.060-26.998-17.517-17.48-27.301-41.241-27.163-65.986v-29.425h-120.524c-45.168-0.009-83.32-33.508-89.168-78.29-5.839-44.791 22.446-86.961 66.097-98.547zM633.232-21.774h-445.389c-40.248 0-71.559 34.575-71.559 78.86v577.913h588.506v-577.913c0-44.285-31.31-78.86-71.559-78.86zM259.88 843.329c-0.156 12.257 4.662 24.055 13.361 32.708 8.69 8.653 20.515 13.407 32.782 13.195h209.030c12.267 0.211 24.092-4.543 32.782-13.195 8.699-8.644 13.517-20.451 13.361-32.708v-29.425h-301.315v29.425zM92.276 766.823h636.524c23.402 0 42.372-18.97 42.372-42.372s-18.97-42.372-42.372-42.372h-636.524c-23.402 0-42.372 18.97-42.372 42.372s18.97 42.372 42.372 42.372zM410.538 572.138c-13.002 0-23.54-10.538-23.54-23.54v-444.91c0-12.993 10.538-23.54 23.54-23.54s23.54 10.547 23.54 23.54v444.91c0 13.002-10.538 23.54-23.54 23.54z"/>
<glyph unicode="" glyph-name="package" d="M24.381 686.73v-528.254c0-9.843 5.918-18.72 15.004-22.505l487.619-203.175c16.059-6.691 33.758 5.108 33.758 22.505v528.254c0 9.843-5.918 18.72-15.004 22.505l-487.619 203.175c-16.059 6.691-33.758-5.108-33.758-22.505zM73.143 650.192l438.857-182.857v-475.477l-438.857 182.906v475.429zM973.276 708.926l-446.984-203.175c-8.704-3.956-14.292-12.635-14.292-22.196v-528.254c0-17.732 18.327-29.533 34.47-22.196l446.984 203.175c8.704 3.956 14.292 12.635 14.292 22.196v528.254c0 17.732-18.327 29.533-34.47 22.196zM958.952 648.924v-474.697l-398.19-181.053v474.746l398.19 181.004zM506.342 912.264c4.96 2.157 10.459 2.588 15.635 1.294l3.808-1.294 467.302-203.175c12.349-5.369 18.007-19.732 12.638-32.080-4.772-10.976-16.651-16.667-27.905-14.025l-4.176 1.387-457.597 198.958-457.564-198.958c-10.976-4.772-23.545-0.832-29.973 8.775l-2.108 3.862c-4.772 10.976-0.832 23.545 8.775 29.973l3.862 2.108 467.302 203.175zM330.977 826.806l451.088-214.471-20.938-44.038-451.088 214.471z"/>
<glyph unicode="" glyph-name="seller" horiz-adv-x="1078" d="M173.886-48.568v0zM933.457-51.758c15.608 0 29.405 12.801 29.405 28.705v434.897c11.771-2.709 16.255-4.282 24.792-4.282 49.454 0 86.318 51.686 88.819 85.546l1.423 15.991h-1.207c0.12 1.538 0.004 3.086-0.345 4.588-0.773 2.231-2.147 4.199-3.967 5.68l-123.225 409.25c-1.828 6.012-7.331 10.096-13.538 10.049h-793.331c-6.257 0-11.775-4.154-13.581-10.224l-121.371-408.027c-2.862-1.761-5.004-4.506-6.036-7.733-0.431-1.354-0.259-3.583-0.259-3.583h-1.035l1.164-15.991c2.501-33.86 39.58-85.284 89.077-85.284 8.537 0 13.021 1.311 24.792 4.020v-434.897c0-15.903 13.797-28.705 29.448-28.705h788.976zM777.335 509.1l-53.205 405.712h84.938l88.56-405.712h-120.293zM478.973 509.1l17.591 405.712h81.618l16.815-405.712h-116.025zM181.043 509.1l87.611 405.712h85.499l-54.197-405.712h-118.913zM173.886 151.098v294.65c11.771-21.015 38.546-38.229 67.174-38.229 32.596 0 58.681 22.282 74.073 47.099 15.349-24.816 41.909-47.099 74.461-47.099 32.596 0 59.327 22.282 74.677 47.099 15.349-24.816 42.21-47.099 74.763-47.099 32.596 0 59.5 22.282 74.849 47.099 15.349-24.816 42.253-47.099 74.806-47.099 32.639 0 59.5 22.282 74.892 47.099 15.349-24.816 40.658-47.099 73.254-47.099 28.629 0 55.361 17.214 67.131 38.229v-294.65h-730.080z"/>
<glyph unicode="" glyph-name="cards-stroke" horiz-adv-x="1323" d="M1229.572 938.423c45.595 0 83.433-35.116 87.993-79.623l0.477-9.049v-638.201c0-45.664-35.048-83.705-79.485-88.264l-8.981-0.477h-119.433l0.068-119.16c-0.164-42.591-30.171-78.129-70.189-86.797l-0.587-0.107-8.779-1.361-8.981-0.477h-928.513c-45.595 0-83.501 35.183-88.061 79.689l-0.477 9.051v638.337c0 45.664 35.048 83.569 79.485 88.129l9.051 0.477h119.16v119.093c0 42.669 30.623 78.601 70.912 86.904l8.779 1.361 8.981 0.477h928.581zM1043.583 336.972h-972.477l0.068-333.324c0-11.092 7.213-19.736 17.421-21.777l4.56-0.34h928.513c0.163-0.004 0.353-0.007 0.547-0.007 10.419 0 19.091 7.481 20.939 17.364l0.021 0.133 0.477 4.628v333.324zM277.985 134.379c18.375-0.056 33.245-14.965 33.245-33.347 0-16.043-11.331-29.441-26.427-32.628l-0.219-0.039-6.532-0.545h-103.371c-18.211 0.269-32.869 15.095-32.869 33.343 0 15.933 11.175 29.256 26.115 32.561l0.22 0.041 6.532 0.615h103.371zM416.201 238.227c0.073 0.001 0.161 0.001 0.247 0.001 18.419 0 33.347-14.928 33.347-33.347 0-16.58-12.103-30.337-27.956-32.913l-0.192-0.025-5.172-0.272h-241.451c-18.245 0.224-32.951 15.065-32.951 33.345 0 17.125 12.911 31.236 29.531 33.129l0.152 0.015h244.445zM1229.572 871.867h-928.581c-0.169 0.004-0.368 0.005-0.569 0.005-10.483 0-19.215-7.501-21.119-17.429l-0.021-0.135-0.409-4.56v-119.16h742.799c14.223 0 28.037-3.403 40.423-9.867l8.981-5.377c18.845-12.816 32.351-32.279 37.189-54.951l0.104-0.581 1.361-8.847 0.477-8.915v-452.688h119.365c0.143-0.003 0.309-0.005 0.477-0.005 10.457 0 19.159 7.511 21.007 17.431l0.021 0.133 0.409 4.628v638.201c0.005 0.184 0.009 0.401 0.009 0.617 0 11.876-9.628 21.504-21.504 21.504-0.147 0-0.293-0.001-0.439-0.004h0.021zM1043.583 471.174h-972.477v-67.781h972.477v67.781zM1021.668 664.035h-928.583c-0.184 0.005-0.399 0.009-0.616 0.009-10.383 0-19.024-7.451-20.869-17.299l-0.021-0.133-0.409-4.56v-104.461h972.477v104.461c0.005 0.184 0.009 0.399 0.009 0.616 0 10.381-7.451 19.024-17.299 20.869l-0.133 0.021-4.56 0.477z"/>
<glyph unicode="" glyph-name="approved" d="M840.205 925.539c94.257 0 170.667-76.41 170.667-170.667v0-656.41c0-94.257-76.41-170.667-170.667-170.667v0h-656.41c-94.257 0-170.667 76.41-170.667 170.667v0 656.41c0 94.257 76.41 170.667 170.667 170.667v0zM840.205 846.77h-656.41c-50.754 0-91.897-41.144-91.897-91.897v0-656.41c0-50.754 41.144-91.897 91.897-91.897v0h656.41c50.754 0 91.897 41.144 91.897 91.897v0 656.41c0 50.754-41.144 91.897-91.897 91.897v0zM700.116 601.201c8.784 0 16.257-3.189 22.4-9.565v0l25.932-26.892c6.145-6.378 9.229-14.126 9.225-23.233 0-9.115-3.081-16.859-9.225-23.237v0l-266.362-276.223c-6.15-6.372-13.62-9.567-22.403-9.567-8.787 0-16.257 3.185-22.403 9.567v0l-145.203 150.575c-6.15 6.376-9.225 14.13-9.225 23.235 0 9.113 3.075 16.861 9.225 23.237v0l25.932 26.894c6.15 6.378 13.618 9.563 22.407 9.563 8.784 0 16.249-3.185 22.401-9.563v0l96.866-100.796 218.027 226.441c6.145 6.376 13.616 9.565 22.407 9.565z"/>
<glyph unicode="" glyph-name="document" horiz-adv-x="805" d="M468 938.667v-230c0-38.598 31.402-70 70-70v0h242v-614c0-60.654-49.346-110-110-110v0h-560c-60.654 0-110 49.346-110 110v0 804c0 60.654 49.346 110 110 110v0h358zM309.44 218.667h-145.44c-16.568 0-30-13.432-30-30s13.432-30 30-30v0h145.44c16.568 0 30 13.432 30 30s-13.432 30-30 30v0zM604 378.667h-440c-16.568 0-30-13.432-30-30s13.432-30 30-30v0h440c16.568 0 30 13.432 30 30s-13.432 30-30 30v0zM604 538.667h-440c-16.568 0-30-13.432-30-30s13.432-30 30-30v0h440c16.568 0 30 13.432 30 30s-13.432 30-30 30v0zM528 926.225c8.932-4.664 17.268-10.57 24.752-17.65v0l192.846-182.444c8.482-8.026 15.542-17.332 21.030-27.464v0h-228.628c-5.514 0-10 4.486-10 10v0z"/>
<glyph unicode="" glyph-name="arrow-right" horiz-adv-x="605" d="M35.992 894.595c-18.263-22.134-16.859-54.814 4.215-75.326l403.325-392.602-403.325-392.602c-22.578-21.977-22.578-57.923 0-79.899 10.906-10.615 24.956-16.226 40.142-16.226s29.237 5.611 40.142 16.226l444.393 432.552c22.578 21.977 22.578 57.923 0 79.899l-444.393 432.552c-22.227 21.634-58.058 21.634-80.285 0l-4.215-4.573z"/>
<glyph unicode="" glyph-name="bill" d="M841.991 650.016c8.207 6.788 19.895 7.109 28.409 0.922l1.2-0.922 142.921-118.784c4.827-4.067 7.797-9.947 8.236-16.223l0.044-1.58v-517.603c0-43.388-34.728-78.833-77.839-79.96l-2.136-0.029h-171.988c-43.447 0-78.892 34.743-80.018 77.868l-0.029 2.121v517.603c0 6.349 2.604 12.39 7.183 16.735l1.185 1.053 142.833 118.784zM976.53 62.503h-239.47v-66.677c0-18.066 14.307-32.856 32.183-33.69l1.609-0.044h171.959c18.081 0 32.841 14.277 33.675 32.154l0.029 1.58v66.677zM655.214 938.667c62.961 0 114.337-50.615 115.61-113.298l0.015-2.341v-147.836c0-12.785-10.386-23.142-23.172-23.142-12.332 0-22.382 9.655-23.055 21.826l-0.044 1.317v147.822c0 37.595-30.076 68.301-67.35 69.369l-2.004 0.029h-539.589c-37.595 0-68.257-30.047-69.339-67.394l-0.015-2.004v-698.251c0-37.581 30.003-68.286 67.35-69.339l2.004-0.044h495.484c12.785 0 23.172-10.357 23.172-23.113 0-12.347-9.684-22.426-21.855-23.113l-1.317-0.029h-495.47c-62.976 0-114.366 50.615-115.624 113.269l-0.015 2.37v698.251c0 62.991 50.6 114.366 113.269 115.624l2.355 0.029h539.589zM737.061 461.454v-352.695h239.47v352.695c-27.692-18.388-59.173-30.062-92.394-34.202l-4.169-0.483v-141.019c0-12.785-10.386-23.142-23.172-23.142-12.347 0-22.382 9.655-23.055 21.811l-0.044 1.317v141.034c-33.353 3.511-65.068 14.585-93.155 32.417l-3.482 2.267zM382.376 387.828c12.771 0 23.099-10.342 23.099-23.113 0-12.347-9.626-22.426-21.797-23.113l-1.317-0.029-177.562 2.267c-12.785 0-23.172 10.357-23.172 23.128 0 12.332 9.684 22.411 21.855 23.084l1.317 0.044 177.576-2.267zM572.548 559.889c12.771 0 23.099-10.357 23.099-23.128 0-12.332-9.626-22.411-21.797-23.099l-1.317-0.029-367.733 0.805c-12.785 0-23.172 10.357-23.172 23.113 0 12.347 9.684 22.426 21.855 23.113l1.317 0.029 367.748-0.805zM891.026 573.713c-10.24-5.998-22.045-9.304-34.231-9.304-11.308 0-22.235 2.853-31.934 8.060l-2.224 1.243-75.118-62.435c29.711-24.781 66.604-38.619 105.618-39.453l3.73-0.029c39.146 0 76.244 13.093 106.394 37.186l2.809 2.297-75.045 62.435zM572.562 731.936c12.771 0 23.099-10.357 23.099-23.128 0-12.332-9.626-22.411-21.797-23.099l-1.317-0.029-367.748 1.931c-2.56 0-5.032 0.41-7.329 1.17-9.201 3.072-15.843 11.732-15.843 21.943 0 12.347 9.684 22.426 21.855 23.113l1.317 0.029c205.575-1.287 320.161-1.931 343.771-1.931h23.976z"/>
<glyph unicode="" glyph-name="agency" d="M303.909 252.514c9.026 9.040 23.669 9.040 32.709 0s9.040-23.698 0-32.739l-142.336-142.321c6.378-10.006 11.118-21.153 13.795-33.104h200.645c8.923 39.541 40.053 70.627 79.579 79.521v112.274c0 12.785 10.357 23.099 23.128 23.099s23.128-10.313 23.128-23.113v-112.26c39.526-8.894 70.656-39.98 79.579-79.521h200.616c2.706 11.952 7.431 23.099 13.795 33.104l-142.336 142.321c-9.026 9.040-9.026 23.698 0 32.739 9.040 9.040 23.698 8.967 32.724 0l142.336-142.395c16.296 10.313 35.547 16.443 56.203 16.443 58.105 0 105.37-47.309 105.37-105.384s-47.265-105.384-105.37-105.384c-50.176 0-92.189 35.269-102.751 82.286h-200.558c-10.547-47.016-52.56-82.286-102.736-82.286s-92.189 35.269-102.736 82.286h-200.558c-10.576-47.016-52.59-82.286-102.751-82.286-58.134 0-105.384 47.294-105.384 105.37s47.265 105.384 105.37 105.384c20.67 0 39.907-6.129 56.203-16.443zM917.46 80.306c-32.592 0-59.099-26.536-59.099-59.129s26.507-59.129 59.099-59.129c32.592 0 59.099 26.536 59.099 59.129s-26.507 59.129-59.099 59.129zM511.415 80.306c-32.592 0-59.099-26.536-59.099-59.129s26.507-59.129 59.099-59.129c32.592 0 59.099 26.536 59.099 59.129s-26.507 59.129-59.099 59.129zM105.37 80.306c-32.592 0-59.099-26.536-59.099-59.129s26.507-59.129 59.099-59.129c32.592 0 59.099 26.536 59.099 59.129s-26.507 59.129-59.099 59.129zM511.415 938.667c85.577 0 155.209-84.699 155.209-188.811 0-58.895-22.323-113.825-60.211-149.402v-54.126l145.554-62.859c1.975-0.892 48.742-23.099 51.522-76.829 0.029-0.38 0.029-0.746 0.029-1.2v-66.545c0-12.771-10.357-23.084-23.113-23.084h-537.98c-12.771 0-23.128 10.313-23.128 23.084v66.56c0 0.439 0 0.819 0.029 1.2 2.779 53.731 49.532 75.922 51.522 76.829l145.54 62.859v54.126c-37.873 35.577-60.197 90.507-60.197 149.402 0.015 104.112 69.647 188.796 155.224 188.796zM511.415 892.397c-60.080 0-108.939-63.971-108.939-142.541 0-49.401 19.31-94.618 51.683-121.008 5.383-4.403 8.514-10.971 8.514-17.935v-79.828c0-9.201-5.486-17.554-13.97-21.226l-158.544-68.389c-1.858-0.98-23.040-12.259-24.591-36.63v-42.759h491.696v42.759c-1.565 24.371-22.762 35.65-24.576 36.557l-158.574 68.462c-8.455 3.657-13.956 12.025-13.956 21.226v79.828c0 6.949 3.131 13.531 8.514 17.935 32.373 26.39 51.697 71.607 51.697 121.008 0 78.555-48.874 142.541-108.954 142.541z"/>
<glyph unicode="" glyph-name="close" d="M466.092 426.519l-424.938-427.904c-11.804-11.888-11.804-31.148 0-43.034 5.894-5.948 13.636-8.912 21.362-8.912 7.74 0 15.466 2.962 21.362 8.912l428.132 431.12 428.132-431.12c5.91-5.948 13.636-8.912 21.36-8.912s15.466 2.962 21.36 8.912c11.804 11.886 11.804 31.148 0 43.034l-424.922 427.904 425.206 428.208c11.804 11.888 11.804 31.146 0 43.034-11.804 11.872-30.932 11.872-42.722 0l-428.402-431.424-428.448 431.406c-11.806 11.872-30.916 11.872-42.722 0-11.804-11.888-11.804-31.146 0-43.034l425.238-428.192z"/>
<glyph unicode="" glyph-name="circled-close" d="M512 938.667c-282.325 0-512-229.675-512-512s229.675-512 512-512 512 229.689 512 512c0 282.325-229.675 512-512 512v-29.255c266.169 0 482.745-216.576 482.745-482.745s-216.576-482.745-482.745-482.745c-266.169 0-482.745 216.576-482.745 482.745s216.576 482.745 482.745 482.745v29.255zM490.553 427.378l-191.076-192.37c-2.446-2.475-3.954-5.874-3.954-9.643 0-7.524 6.044-13.625 13.554-13.739h0.043c3.74 0 7.125 1.536 9.572 3.996l192.512 193.877 192.498-193.877c2.46-2.475 5.86-4.011 9.614-4.011s7.154 1.536 9.6 4.011c2.46 2.489 3.982 5.902 3.982 9.671 0 3.783-1.522 7.196-3.982 9.685l-191.076 192.469 191.218 192.441c2.46 2.489 3.982 5.902 3.982 9.671 0 3.783-1.522 7.196-3.982 9.671-2.446 2.489-5.845 4.011-9.6 4.011s-7.154-1.522-9.614-3.996l-192.654-193.948-192.612 193.991c-2.446 2.46-5.845 3.982-9.6 3.982s-7.154-1.522-9.614-3.982c-2.46-2.489-3.982-5.916-3.982-9.671 0-3.783 1.522-7.211 3.982-9.685l191.189-192.555z"/>
<glyph unicode="" glyph-name="circled-document" d="M512 933.278c279.789 0 506.611-226.821 506.611-506.611s-226.821-506.611-506.611-506.611-506.611 226.821-506.611 506.611 226.821 506.611 506.611 506.611zM512 900.941c-261.928 0-474.274-212.345-474.274-474.274s212.345-474.274 474.274-474.274 474.274 212.345 474.274 474.274-212.345 474.274-474.274 474.274zM562.812 690.751c13.226 0 25.848-4.667 35.84-13.215l2.102-1.886 96.773-91.556c10.283-9.733 16.459-23.175 17.192-37.274l0.065-2.824v-311.91c0-29.653-23.498-53.927-52.871-55.156l-2.328-0.043h-281.007c-29.664 0-53.938 23.509-55.156 52.871l-0.054 2.328v403.456c0 29.664 23.509 53.938 52.871 55.156l2.328 0.054h184.245zM558.22 660.646h-179.653c-13.258 0-24.145-10.348-25.029-23.38l-0.065-1.725v-403.456c0-13.258 10.348-24.145 23.38-25.029l1.725-0.065h281.007c13.258 0 24.145 10.348 25.039 23.38l0.054 1.725v308.095h-91.33c-18.701 0-34.040 14.692-35.075 33.145l-0.054 1.983v85.315zM478.65 329.441c8.321 0 15.058-6.737 15.058-15.058 0-7.826-5.972-14.25-13.603-14.983l-1.455-0.065h-72.973c-8.321 0-15.069 6.737-15.069 15.047 0 7.826 5.972 14.261 13.614 14.983l1.444 0.075h72.984zM626.472 409.733c8.311 0 15.047-6.748 15.047-15.058 0-7.826-5.972-14.25-13.603-14.983l-1.444-0.075h-220.807c-8.311 0-15.058 6.748-15.058 15.058 0 7.826 5.972 14.261 13.614 14.983l1.444 0.075h220.807zM626.472 490.026c8.311 0 15.047-6.748 15.047-15.058 0-7.826-5.972-14.261-13.603-14.983l-1.444-0.075h-220.807c-8.311 0-15.058 6.748-15.058 15.058 0 7.826 5.972 14.261 13.614 14.983l1.444 0.075h220.807zM588.315 645.954v-70.624c0-2.458 1.779-4.506 4.118-4.937l0.905-0.075h74.935l-79.958 75.636z"/>
<glyph unicode="" glyph-name="bold-close" d="M85.252 833.365c-31.169-40.954-28.052-99.66 9.351-137.063l269.685-269.635-269.683-269.632-10.692-12.798c-29.655-47.021-23.8-100.478 10.689-134.967l12.795-10.689 14.274-7.838c43.249-20.359 89.653-12.513 120.693 18.527l269.635 269.685 269.632-269.683c40.806-40.806 106.962-40.806 147.765-0.003l9.351 10.7c31.169 40.954 28.052 99.66-9.351 137.063l-269.685 269.635 269.683 269.632 10.692 12.798c29.655 47.021 23.8 100.478-10.689 134.967l-12.795 10.689-14.274 7.838c-43.249 20.359-89.653 12.513-120.693-18.527l-269.635-269.685-269.635 269.685c-40.803 40.803-106.959 40.803-147.762 0l-9.351-10.7z"/>
<glyph unicode="" glyph-name="user" horiz-adv-x="993" d="M497.085 371.876c-204.412 0-372.453-155.297-392.649-354.347h785.3c-20.197 199.049-188.237 354.347-392.651 354.347zM932.109-63.148h-870.049c-22.279 0-40.339 18.061-40.339 40.339 0 262.557 212.769 475.364 475.364 475.364s475.364-212.807 475.364-475.364c0-22.279-18.061-40.339-40.339-40.339zM674.259 659.094c0 97.788-79.385 177.173-177.173 177.173s-177.173-79.385-177.173-177.173c0-97.788 79.385-177.173 177.173-177.173s177.173 79.385 177.173 177.173zM754.937 659.094c0-142.347-115.507-257.852-257.852-257.852s-257.852 115.505-257.852 257.852c0 142.347 115.505 257.852 257.852 257.852s257.852-115.507 257.852-257.852z"/>
<glyph unicode="" glyph-name="checkmark" horiz-adv-x="1331" d="M1203.733 876.155c-7.697 7.989-15.48 11.312-26.333 11.312-8.154 0-14.569-1.868-20.512-6.169l-5.832-5.132-652.125-677.291-310.143 322.727c-7.728 8.012-15.501 11.329-26.36 11.329-8.156 0-14.569-1.866-20.522-6.176l-5.847-5.146-73.178-75.894c-8.072-8.368-11.681-17.461-11.681-30.023 0-9.41 2.033-16.886 6.456-23.566l5.231-6.457 409.741-424.9c7.701-7.996 15.469-11.312 26.338-11.312 8.128 0 14.546 1.873 20.507 6.188l5.855 5.149 751.576 779.402c8.089 8.396 11.703 17.496 11.703 30.066 0 9.383-2.030 16.849-6.461 23.54l-5.243 6.473-73.171 75.881z"/>
<glyph unicode="" d="M165.359 795.136c198.297 186.763 510.427 183.16 704.368-10.775 170.059-170.088 196.059-435.108 66.157-633.955-18.969-29.143-41.124-56.451-66.157-81.448-197.555-197.583-517.879-197.583-715.42-0.016-26.307 26.273-49.461 55.16-69.243 86.188-126.507 198.484-99.387 460.693 69.199 629.237v0z"/>
<glyph unicode="" horiz-adv-x="1067" d="M512 933.278c124.478 0 238.47-44.894 326.669-119.373-9.366-5.908-17.997-12.844-25.749-20.655-81.857 67.294-186.671 107.691-300.92 107.691-261.934 0-474.274-212.34-474.274-474.274s212.34-474.274 474.274-474.274c261.934 0 474.274 212.34 474.274 474.274 0 44.47-6.12 87.511-17.565 128.326 10.376 4.016 20.175 9.185 29.24 15.351 13.445-45.548 20.662-93.77 20.662-143.677 0-279.793-226.817-506.611-506.611-506.611s-506.611 226.817-506.611 506.611c0 279.793 226.817 506.611 506.611 506.611zM562.815 690.751c13.225 0 25.843-4.671 35.835-13.212l2.1-1.889 96.774-91.554c10.286-9.731 16.46-23.185 17.191-37.274l0.073-2.825v-311.91c0-29.657-23.509-53.927-52.871-55.152l-2.33-0.049h-281.020c-29.657 0-53.927 23.509-55.152 52.871l-0.049 2.33v403.465c0 29.657 23.509 53.927 52.871 55.152l2.33 0.049h184.246zM558.221 660.642h-179.652c-13.259 0-24.149-10.337-25.033-23.376l-0.058-1.715v-403.465c0-13.259 10.337-24.149 23.376-25.033l1.715-0.058h281.020c13.259 0 24.149 10.337 25.033 23.376l0.058 1.715v308.119h-91.332c-18.701 0-34.036 14.69-35.072 33.137l-0.056 1.99v85.31zM478.652 329.439c8.314 0 15.055-6.74 15.055-15.055 0-7.825-5.971-14.256-13.605-14.986l-1.45-0.069h-72.985c-8.314 0-15.055 6.74-15.055 15.055 0 7.825 5.971 14.256 13.605 14.986l1.45 0.069h72.985zM626.469 409.731c8.314 0 15.055-6.74 15.055-15.055 0-7.825-5.971-14.256-13.605-14.986l-1.45-0.069h-220.802c-8.314 0-15.055 6.74-15.055 15.055 0 7.825 5.971 14.256 13.605 14.986l1.45 0.069h220.802zM626.469 490.022c8.314 0 15.055-6.74 15.055-15.055 0-7.825-5.971-14.256-13.605-14.986l-1.45-0.069h-220.802c-8.314 0-15.055 6.74-15.055 15.055 0 7.825 5.971 14.256 13.605 14.986l1.45 0.069h220.802zM588.33 645.953v-70.62c0-2.46 1.779-4.512 4.117-4.937l0.901-0.081h74.933l-79.951 75.639z"/>
<glyph unicode="" horiz-adv-x="1067" d="M916.211 820.099c71.437 0 129.347-57.911 129.347-129.347s-57.911-129.347-129.347-129.347c-71.437 0-129.347 57.911-129.347 129.347s57.911 129.347 129.347 129.347z"/>
<glyph unicode="" horiz-adv-x="1067" d="M985.278 736.871l-7.849 8.386c-1.859 1.988-4.121 2.983-6.78 2.983-2.661 0-4.922-0.994-6.782-2.983l-65.993-70.61-29.319 31.431c-1.862 1.989-4.122 2.982-6.78 2.982-2.66 0-4.921-0.993-6.782-2.982l-7.849-8.386c-1.862-1.988-2.792-4.404-2.792-7.246 0-2.839 0.931-5.257 2.792-7.245l43.95-46.953c1.86-1.99 4.121-2.983 6.781-2.983s4.92 0.996 6.781 2.983l80.623 86.133c1.86 1.989 2.792 4.404 2.792 7.246 0.001 2.84-0.932 5.256-2.792 7.245z"/>
<glyph unicode="" horiz-adv-x="1046" d="M512 933.278c131.326 0 250.98-49.969 340.989-131.931-9.492-5.629-18.229-12.384-26.031-20.084-83.75 74.452-194.073 119.678-314.958 119.678-261.934 0-474.274-212.34-474.274-474.274s212.34-474.274 474.274-474.274c261.934 0 474.274 212.34 474.274 474.274 0 45.821-6.498 90.124-18.622 132.038 10.421 3.784 20.251 8.828 29.298 14.942 14.092-46.519 21.662-95.865 21.662-146.98 0-279.793-226.817-506.611-506.611-506.611s-506.611 226.817-506.611 506.611c0 279.793 226.817 506.611 506.611 506.611zM562.815 690.751c13.225 0 25.843-4.671 35.835-13.212l2.1-1.889 96.774-91.554c10.286-9.731 16.46-23.185 17.191-37.274l0.073-2.825v-311.91c0-29.657-23.509-53.927-52.871-55.152l-2.33-0.049h-281.020c-29.657 0-53.927 23.509-55.152 52.871l-0.049 2.33v403.465c0 29.657 23.509 53.927 52.871 55.152l2.33 0.049h184.246zM558.221 660.642h-179.652c-13.259 0-24.149-10.337-25.033-23.376l-0.058-1.715v-403.465c0-13.259 10.337-24.149 23.376-25.033l1.715-0.058h281.020c13.259 0 24.149 10.337 25.033 23.376l0.058 1.715v308.119h-91.332c-18.701 0-34.036 14.69-35.072 33.137l-0.056 1.99v85.31zM478.652 329.439c8.314 0 15.055-6.74 15.055-15.055 0-7.825-5.971-14.256-13.605-14.986l-1.45-0.069h-72.985c-8.314 0-15.055 6.74-15.055 15.055 0 7.825 5.971 14.256 13.605 14.986l1.45 0.069h72.985zM626.469 409.731c8.314 0 15.055-6.74 15.055-15.055 0-7.825-5.971-14.256-13.605-14.986l-1.45-0.069h-220.802c-8.314 0-15.055 6.74-15.055 15.055 0 7.825 5.971 14.256 13.605 14.986l1.45 0.069h220.802zM626.469 490.022c8.314 0 15.055-6.74 15.055-15.055 0-7.825-5.971-14.256-13.605-14.986l-1.45-0.069h-220.802c-8.314 0-15.055 6.74-15.055 15.055 0 7.825 5.971 14.256 13.605 14.986l1.45 0.069h220.802zM588.33 645.953v-70.62c0-2.46 1.779-4.512 4.117-4.937l0.901-0.081h74.933l-79.951 75.639z"/>
<glyph unicode="" horiz-adv-x="1046" d="M921.6 803.93c-65.484 0-118.568-53.085-118.568-118.568s53.085-118.568 118.568-118.568c65.484 0 118.568 53.085 118.568 118.568s-53.085 118.568-118.568 118.568z"/>
<glyph unicode="" horiz-adv-x="1046" d="M926.989 658.414c5.953 0 10.779-4.826 10.779-10.779v-10.779c0-5.953-4.826-10.779-10.779-10.779h-10.779c-5.953 0-10.779 4.826-10.779 10.779v10.779c0 5.953 4.826 10.779 10.779 10.779h10.779zM926.989 755.425c5.953 0 10.779-4.826 10.779-10.779v-64.674c0-5.953-4.826-10.779-10.779-10.779h-10.779c-5.953 0-10.779 4.826-10.779 10.779v64.674c0 5.953 4.826 10.779 10.779 10.779h10.779z"/>
<glyph unicode="" horiz-adv-x="1035" d="M512 933.278c130.581 0 249.622-49.404 339.454-130.539-9.578-5.544-18.365-12.277-26.175-19.997-83.544 73.574-193.2 118.199-313.279 118.199-261.934 0-474.274-212.34-474.274-474.274s212.34-474.274 474.274-474.274c261.934 0 474.274 212.34 474.274 474.274 0 50.162-7.787 98.504-22.219 143.885 10.319 4.099 19.985 9.5 28.797 15.992 16.716-50.255 25.759-104.010 25.759-159.877 0-279.793-226.817-506.611-506.611-506.611s-506.611 226.817-506.611 506.611c0 279.793 226.817 506.611 506.611 506.611zM562.815 690.751c13.225 0 25.843-4.671 35.835-13.212l2.1-1.889 96.774-91.554c10.286-9.731 16.46-23.185 17.191-37.274l0.073-2.825v-311.91c0-29.657-23.509-53.927-52.871-55.152l-2.33-0.049h-281.020c-29.657 0-53.927 23.509-55.152 52.871l-0.049 2.33v403.465c0 29.657 23.509 53.927 52.871 55.152l2.33 0.049h184.246zM558.221 660.642h-179.652c-13.259 0-24.149-10.337-25.033-23.376l-0.058-1.715v-403.465c0-13.259 10.337-24.149 23.376-25.033l1.715-0.058h281.020c13.259 0 24.149 10.337 25.033 23.376l0.058 1.715v308.119h-91.332c-18.701 0-34.036 14.69-35.072 33.137l-0.056 1.99v85.31zM478.652 329.439c8.314 0 15.055-6.74 15.055-15.055 0-7.825-5.971-14.256-13.605-14.986l-1.45-0.069h-72.985c-8.314 0-15.055 6.74-15.055 15.055 0 7.825 5.971 14.256 13.605 14.986l1.45 0.069h72.985zM626.469 409.731c8.314 0 15.055-6.74 15.055-15.055 0-7.825-5.971-14.256-13.605-14.986l-1.45-0.069h-220.802c-8.314 0-15.055 6.74-15.055 15.055 0 7.825 5.971 14.256 13.605 14.986l1.45 0.069h220.802zM626.469 490.022c8.314 0 15.055-6.74 15.055-15.055 0-7.825-5.971-14.256-13.605-14.986l-1.45-0.069h-220.802c-8.314 0-15.055 6.74-15.055 15.055 0 7.825 5.971 14.256 13.605 14.986l1.45 0.069h220.802zM588.33 645.953v-70.62c0-2.46 1.779-4.512 4.117-4.937l0.901-0.081h74.933l-79.951 75.639z"/>
<glyph unicode="" horiz-adv-x="1035" d="M916.211 803.93c-62.507 0-113.179-50.672-113.179-113.179s50.672-113.179 113.179-113.179c62.507 0 113.179 50.672 113.179 113.179s-50.672 113.179-113.179 113.179z"/>
<glyph unicode="" horiz-adv-x="1035" d="M917.838 753.358c0 5.293-4.291 9.584-9.584 9.584s-9.584-4.291-9.584-9.584v-79.863c0-5.293 4.291-9.584 9.584-9.584h47.918c5.293 0 9.584 4.291 9.584 9.584s-4.291 9.584-9.584 9.584h-38.334v70.279z"/>
<glyph unicode="" d="M170.667 938.667h682.667c94.257 0 170.667-76.41 170.667-170.667v-682.667c0-94.257-76.41-170.667-170.667-170.667h-682.667c-94.257 0-170.667 76.41-170.667 170.667v682.667c0 94.257 76.41 170.667 170.667 170.667z"/>
<glyph unicode="" glyph-name="unavailable-point" horiz-adv-x="806" d="M403.064 933.22c219.257 0 397.617-178.37 397.617-397.645 0-140.62-174.293-377.627-386.088-588.489v0l-11.53-11.479-20.333 20.283c-207.834 208.684-377.283 441.024-377.283 579.685 0 219.279 178.352 397.645 397.617 397.645zM403.064 900.539c-201.216 0-364.936-163.733-364.936-364.964 0-124.44 162.219-348.479 359.475-548.267v0l5.461-5.493 14.141 14.32c190.481 194.614 346.22 410.469 350.697 534.046v0l0.099 5.394c0 201.226-163.729 364.964-364.936 364.964zM403.064 469.251c55.788 0 101.315-37.657 103.871-84.934l0.113-4.196h-207.969c0 49.225 46.555 89.13 103.985 89.13zM284.224 677.22c24.612 0 44.565-19.952 44.565-44.565s-19.952-44.565-44.565-44.565c-24.612 0-44.565 19.952-44.565 44.565s19.952 44.565 44.565 44.565zM521.903 677.22c24.612 0 44.565-19.952 44.565-44.565s-19.952-44.565-44.565-44.565c-24.612 0-44.565 19.952-44.565 44.565s19.952 44.565 44.565 44.565z"/>
<glyph unicode="" glyph-name="radio-selected" d="M512 938.667c282.77 0 512-229.23 512-512s-229.23-512-512-512c-282.77 0-512 229.23-512 512s229.23 512 512 512zM512 853.334c-235.641 0-426.667-191.025-426.667-426.667s191.025-426.667 426.667-426.667c235.641 0 426.667 191.025 426.667 426.667s-191.025 426.667-426.667 426.667zM512 654.223c125.675 0 227.556-101.88 227.556-227.556s-101.88-227.556-227.556-227.556c-125.675 0-227.556 101.88-227.556 227.556s101.88 227.556 227.556 227.556z"/>
<glyph unicode="" glyph-name="radio-unselected" d="M512 938.667c282.77 0 512-229.23 512-512s-229.23-512-512-512c-282.77 0-512 229.23-512 512s229.23 512 512 512zM512 853.334c-235.641 0-426.667-191.025-426.667-426.667s191.025-426.667 426.667-426.667c235.641 0 426.667 191.025 426.667 426.667s-191.025 426.667-426.667 426.667z"/>
<glyph unicode="" glyph-name="search" d="M1064.448-45.852l-266.468 267.548c65.694 74.465 105.855 172.813 106.041 280.537v0.039c0 240.64-202.752 436.395-451.982 436.395s-452.039-195.755-452.039-436.395 202.809-436.395 452.039-436.395c0.527-0.002 1.151-0.003 1.774-0.003 96.005 0 185.115 29.52 258.748 79.978l-1.565-1.013 268.516-269.653c11.207-11.207 26.283-17.408 42.439-17.408 15.36 0 29.867 5.689 40.846 15.929 11.135 10.199 18.092 24.804 18.092 41.034 0 15.401-6.264 29.338-16.383 39.405l-0.002 0.002zM452.039 824.832c184.206 0 334.108-144.725 334.108-322.56 0-177.892-149.902-322.56-334.108-322.56-184.263 0-334.108 144.668-334.108 322.56 0 177.835 149.845 322.56 334.108 322.56z"/>
<glyph unicode="" glyph-name="clock" d="M512 902.096c262.572 0 475.429-212.857 475.429-475.429s-212.857-475.429-475.429-475.429c-262.572 0-475.429 212.857-475.429 475.429s212.857 475.429 475.429 475.429zM512 828.953c-222.176 0-402.286-180.109-402.286-402.286s180.109-402.286 402.286-402.286c222.176 0 402.286 180.109 402.286 402.286s-180.109 402.286-402.286 402.286zM512 719.238c20.187 0 36.571-16.384 36.571-36.571v0-219.429h146.286c20.187 0 36.571-16.384 36.571-36.571s-16.384-36.571-36.571-36.571v0h-182.857c-20.187 0-36.571 16.384-36.571 36.571v0 256c0 20.187 16.384 36.571 36.571 36.571z"/>
<glyph unicode="" horiz-adv-x="1094" d="M369.086 591.895v-3.288l1.558 3.904z"/>
<glyph unicode="" horiz-adv-x="1094" d="M500.406 938.667c-276.351 0-500.406-224.055-500.406-500.406 0-276.369 224.055-500.406 500.406-500.406 276.369 0 500.406 224.037 500.406 500.406 0 276.351-224.037 500.406-500.406 500.406z"/>
<glyph unicode="" horiz-adv-x="1094" d="M284.702 346.619h638.020v472.386h-638.020z"/>
<glyph unicode="" horiz-adv-x="1094" d="M936.749 833.032h-666.075v-500.44h666.075v500.44zM908.681 804.991v-444.332h-609.953v444.332h609.953z"/>
<glyph unicode="" horiz-adv-x="1094" d="M508.871 717.779h189.682v101.225h-189.682z"/>
<glyph unicode="" horiz-adv-x="1094" d="M967.728 478.971c-41.782-9.481-78.183-34.029-106.342-87.661l-92.961-51.507c-10.536 13.834-27.918 23.687-52.628 23.687-34.488 0-69.13 0-134.829 0-19.675 0-60.577 50.613-91.789 50.613-13.864 0-78.787 0-110.722 0-31.918 0-72.769-27.196-95.686-48.099-35.419-34.636-125.466-117.877-135.571-125.908 56.335-47.677 173.541-156.933 199.424-179.27 35.022 34.248 48.714 66.471 77.631 66.471 28.935 0 286.195 0 315.13 0 26.262 0 169.713 128 188.061 148.143 17.658 19.368 111.412 138.038 133.225 187.942-13.692 18.052-49.196 25.543-92.944 15.589z"/>
<glyph unicode="" horiz-adv-x="1094" d="M1070.073 474.062l1.775-2.202 4.972-6.556-3.295-7.539c-18.32-41.911-101.399-154.137-135.708-191.769-37.171-40.81-166.743-148.911-196.935-152.627l-1.496-0.098h-315.13c-7.067 0-13.175-3.062-21.152-10.696l-2.51-2.655c-0.643-0.707-1.374-1.522-2.18-2.428l42.105-41.236-137.089-134.164-279.972 273.936 137.070 134.165 31.315-30.648c29.644 27.465 63.809 59.553 81.48 76.827 30.55 27.842 69.946 49.996 101.399 51.659l3.735 0.1h110.722c12.183 0 24.55-4.94 38.781-13.991 5.161-3.282 10.3-6.916 16.66-11.699l19.304-14.573c10.137-7.492 14.036-9.863 16.304-10.279l0.74-0.071h134.829c20.269 0 36.622-5.454 49.060-14.255l1.965-1.438 84.375 40.174 0.531 0.96c26.992 48.849 62.551 76.916 108.138 88.546l4.752 1.145c45.711 10.397 86.406 3.665 105.456-18.588zM974.836 466.155l-4.004-0.863c-39.934-9.062-70.404-32.245-94.473-75.762l-2.554-4.741-2.172-4.136-85.959-40.923 0.847-1.589c21.624-42.541-0.772-104.592-67.189-106.719l-3.536-0.056h-189.682v28.055h189.682c66.444 0 67.499 87.206 3.164 89.974l-3.164 0.067-137.133 0.019c-10.236 0.204-13.969 2.428-41.498 23.38l-6.274 4.782c-7.354 5.61-12.779 9.51-17.988 12.823-9.118 5.799-16.448 8.943-21.956 9.514l-1.768 0.095h-110.722c-23.329 0-59.167-19.768-85.878-44.101l-6.679-6.482c-18.545-17.886-47.807-45.342-73.99-69.6l166.414-162.789 0.613 0.663c1.593 1.764 2.923 3.204 3.906 4.214l0.865 0.862c11.842 11.332 23.485 17.554 37.317 18.385l3.232 0.096h315.13c15.198 0 146.706 109.544 177.695 143.567 29.257 32.090 98.554 124.977 124.109 171.004l2.393 4.471-1.431 0.927c-13.447 8.164-38.152 10.798-67.315 4.861z"/>
<glyph unicode="" horiz-adv-x="1094" d="M631.725 588.607v3.288l-1.556 0.616z"/>
<glyph unicode="" glyph-name="contactus" horiz-adv-x="1071" d="M310.458 318.495v343.319h-203.404c-58.88 0-107.055-49.897-107.055-110.778v-332.241c0-60.881 48.175-110.732 107.055-110.732h53.527v-166.121l160.582 166.167h267.636c58.88 0 107.055 49.804 107.055 110.685v100.817c-3.537-0.791-7.121-1.21-10.705-1.164h-374.691zM963.491 938.667h-481.745c-58.88 0-107.055-49.804-107.055-110.778v-442.973h374.691l160.582-166.121v166.167h53.527c58.88 0 107.055 49.757 107.055 110.732v332.195c0 60.928-48.175 110.778-107.055 110.778z"/>
<glyph unicode="" glyph-name="alarm" horiz-adv-x="819" d="M539.539 77.608c0-80.623-65.302-145.922-145.922-145.922s-145.922 65.298-145.918 145.922v0zM380.819 860.080c37.112 0 67.069-29.957 67.069-67.069v0-30.403c128.102-30.405 201.207-145.093 201.207-282.585v0-223.564l89.424-89.426v-44.712h-715.402v44.712l89.426 89.426v223.562c0 137.491 73.105 252.179 201.207 282.585v0 30.405c0 37.112 29.957 67.069 67.069 67.069z"/>
<glyph unicode="" glyph-name="chat" horiz-adv-x="1252" d="M1102.87 910.223c55.819 0 101.069-45.25 101.069-101.069v0-572.932c0-55.819-45.25-101.069-101.069-101.069v0l-532.957 0.015-213.643-213.716-0.031 213.716-226.725-0.015c-53.028 0-96.517 40.838-100.734 92.779v0l-0.335 8.289v572.932c0 55.819 45.25 101.069 101.069 101.069v0zM327.414 518.658h-56.889l0.285-11.894c6.251-130.080 114.447-234.423 246.032-234.423v0h193.664l11.893 0.285c130.067 6.252 234.424 114.479 234.424 246.031v0h-56.889l-0.282-10.347c-5.426-99.366-88.496-179.081-189.146-179.081v0h-193.664l-10.35 0.282c-99.392 5.425-179.078 88.479-179.078 189.146v0zM444.217 764.974c-69.161 0-125.277-56.116-125.277-125.277v0h56.889l0.353 6.988c3.505 34.465 32.651 61.4 68.034 61.4 37.742 0 68.388-30.646 68.388-68.388v0h56.889l-0.315 8.943c-4.59 64.991-58.808 116.333-124.962 116.333zM783.13 764.974c-69.161 0-125.277-56.116-125.277-125.277v0h56.889l0.353 6.988c3.505 34.465 32.651 61.4 68.034 61.4 37.742 0 68.388-30.646 68.388-68.388v0h56.889l-0.315 8.943c-4.59 64.991-58.808 116.333-124.962 116.333z"/>
<glyph unicode="" glyph-name="exclamation-mark" horiz-adv-x="176" d="M0 28.873c0 38.719 38.359 70.173 85.579 70.173h4.385c47.228 0 85.579-31.453 85.579-70.173v-39.586c0-38.719-38.359-70.173-85.579-70.173h-4.385c-47.228 0-85.579 31.453-85.579 70.173v39.586zM0 851.795c0 34.295 38.591 62.062 86.24 62.062h2.989c47.657 0 86.256-27.767 86.256-62.056l0.058-519.539c0-34.295-38.599-62.062-86.256-62.062h-2.964c-47.665 0-86.322 27.814-86.322 62.104v519.492z"/>
<glyph unicode="" glyph-name="facebook" horiz-adv-x="468" d="M101.18 742.24c0-25.559 0-139.641 0-139.641h-101.18v-170.755h101.18v-507.423h207.847v507.409h139.475c0 0 13.063 81.876 19.395 171.399-18.153 0-158.083 0-158.083 0s0 99.34 0 116.752c0 17.451 22.661 40.923 45.060 40.923 22.356 0 69.54 0 113.243 0 0 23.249 0 103.577 0 177.765-58.341 0-124.715 0-153.971 0-218.101 0.012-212.963-170.913-212.963-196.427z"/>
<glyph unicode="" glyph-name="cellphone-verify" horiz-adv-x="580" d="M462.94 960h-367.999c-25.179 0-49.33-10-67.129-27.798-17.813-17.813-27.813-41.951-27.813-67.129v-834.145c0-25.18 10-49.316 27.813-67.13 17.798-17.797 41.951-27.798 67.129-27.798h367.999c25.163 0.044 49.289 10.073 67.069 27.856 17.797 17.801 27.812 41.905 27.87 67.069v834.147c-0.058 25.164-10.073 49.273-27.87 67.068-17.783 17.783-41.905 27.813-67.069 27.858v0.003zM94.942 917.336h367.999c28.87 0 52.279-23.393 52.279-52.264v-665.611h-472.541v665.611c0 28.869 23.393 52.264 52.264 52.264zM462.94-21.344h-367.999c-28.869 0-52.264 23.392-52.264 52.262v125.867h472.541v-125.867c0-13.855-5.506-27.156-15.312-36.949-9.807-9.807-23.095-15.312-36.966-15.312v0zM217.602 819.202h122.665c11.788 0 21.342 9.539 21.342 21.325s-9.554 21.34-21.342 21.34h-122.665c-11.786 0-21.34-9.554-21.34-21.34s9.554-21.325 21.34-21.325zM278.821 125.85c-15.447 0-30.253-6.144-41.178-17.070-10.923-10.923-17.054-25.726-17.054-41.175s6.131-30.269 17.054-41.189c10.923-10.909 25.73-17.056 41.178-17.056s30.268 6.147 41.189 17.056c10.923 10.923 17.054 25.743 17.054 41.189 0.059 15.459-6.057 30.31-16.994 41.25-10.938 10.923-25.774 17.039-41.25 16.992l0.001 0.003zM278.821 52.248c-7.842 0.925-13.75 7.561-13.75 15.462s5.908 14.537 13.75 15.462c4.42 0.519 8.854-0.864 12.173-3.826 3.333-2.946 5.223-7.185 5.223-11.636s-1.89-8.677-5.223-11.636c-3.318-2.963-7.753-4.345-12.173-3.826zM102.434 573.884l-12.186 8.841 13.858 23.415-24.371 10.752 4.54 14.336 26.044-5.973 2.628 26.999h15.053l2.628-26.999 26.283 5.973 4.54-14.336-24.61-10.752 13.858-23.415-12.186-8.841-17.92 20.787-18.159-20.787zM207.201 573.884l-12.186 8.841 13.858 23.415-24.371 10.752 4.54 14.336 26.044-5.973 2.628 26.999h15.053l2.628-26.999 26.283 5.973 4.54-14.336-24.61-10.752 13.858-23.415-12.186-8.841-17.92 20.787-18.159-20.787zM311.967 573.884l-12.186 8.841 13.858 23.415-24.371 10.752 4.54 14.336 26.044-5.973 2.628 26.999h15.053l2.628-26.999 26.284 5.973 4.54-14.336-24.61-10.752 13.858-23.415-12.186-8.841-17.921 20.787-18.159-20.787zM416.734 573.884l-12.186 8.841 13.858 23.415-24.371 10.752 4.54 14.336 26.044-5.973 2.628 26.999h15.053l2.628-26.999 26.283 5.973 4.54-14.336-24.61-10.752 13.858-23.415-12.186-8.841-17.92 20.787-18.159-20.787z"/>
<glyph unicode="" glyph-name="eye-close" horiz-adv-x="1117" d="M972.128 434.279c7.965 13.653 25.031 17.067 38.685 9.103s17.067-25.031 9.103-38.685c-95.573-154.739-271.929-251.449-461.937-251.449s-366.365 96.711-461.937 251.449c-7.964 12.515-4.551 30.72 9.103 38.685 12.516 7.964 30.72 4.551 38.684-9.103 3.413-4.551 6.827-10.24 10.24-14.791 87.609-129.707 240.071-209.351 403.911-209.351s316.303 80.783 403.911 209.351c3.413 4.551 6.827 10.24 10.24 14.791zM557.977 106.598c14.481 0 26.14-10.343 28.141-24.192l0.303-4.253v-88.747c0-15.929-12.515-28.444-28.444-28.444-14.481 0-26.141 10.343-28.141 24.192l-0.303 4.253v88.747c0 15.929 12.515 28.444 28.445 28.444zM704.755 125.942c14.791 3.413 30.709-4.551 34.133-20.48v0l22.756-86.471c3.413-15.929-5.689-30.72-20.492-35.271-2.264-1.139-4.54-1.139-6.815-1.139-12.516 0-23.893 9.103-27.317 21.619v0l-22.755 86.471c-3.413 15.929 5.689 30.72 20.491 35.271zM841.288 182.831c13.641 7.964 30.709 2.276 38.673-11.379v0l44.385-77.369c7.965-13.653 3.413-30.72-10.252-38.684-3.403-2.276-9.091-3.413-13.653-3.413-10.228 0-19.331 5.689-25.020 14.791v0l-44.373 77.369c-7.976 13.653-3.413 30.72 10.24 38.684zM994.695 275.786l3.604-3.072 63.715-62.577c11.379-10.24 11.379-28.444 0-39.821-5.689-5.689-12.515-7.964-20.48-7.964-6.371 0-12.015 1.456-16.931 4.952l-3.549 3.013-62.577 62.577c-11.379 10.24-11.379 28.444 0 39.823 9.205 10.24 24.881 11.264 36.217 3.072v0zM377.071 105.459c3.413 15.929 19.341 23.893 34.133 20.48 15.929-4.551 25.031-20.48 20.48-35.271v0l-22.756-86.46c-3.413-13.665-14.791-21.629-27.307-21.629-2.276 0-4.551 0-6.827 1.139-15.929 4.551-25.031 20.491-20.48 35.271v0l22.756 86.471zM235.988 171.452c7.964 13.653 25.031 19.343 38.684 11.379s18.204-25.031 10.24-38.684v0l-44.373-77.369c-5.689-10.24-14.791-14.791-25.031-14.791-4.551 0-9.103 1.137-13.653 3.413-13.653 7.964-18.204 25.031-10.24 38.684v0l44.373 77.369zM157.477 272.714c10.24-10.24 11.264-26.011 3.901-36.525l-2.764-3.296-62.577-62.577c-5.689-5.689-12.516-7.964-20.48-7.964s-14.791 2.276-20.48 7.964c-10.24 9.216-11.264 24.883-3.072 36.219l3.072 3.603 62.579 62.577c10.24 11.379 28.444 11.379 39.823 0z"/>
<glyph unicode="" glyph-name="eye-open" horiz-adv-x="1365" d="M681.908 678.828c253.345 0 488.485-128.948 615.917-335.267 4.445-7.621 6.233-16.043 5.472-24.036 0.761-7.993-1.025-16.413-5.472-24.036-127.431-206.317-362.572-335.265-615.917-335.265s-488.487 128.948-615.917 335.265c-4.564 7.173-6.327 15.747-5.405 24.036-0.921 8.289 0.841 16.863 5.405 24.036 127.431 206.317 362.572 335.267 615.917 335.267zM681.908 602.975c-218.455 0-421.737-106.192-538.548-279.135-1.029-1.373-2.057-2.821-3.088-4.315 1.029-1.493 2.057-2.943 3.088-4.313 116.812-172.943 320.095-279.135 538.548-279.135s421.736 107.711 538.548 279.135c1.029 1.372 2.059 2.823 3.088 4.313-1.029 1.492-2.059 2.943-3.088 4.315-116.812 171.425-320.095 279.135-538.548 279.135zM682.667 546.134c121.867 0 221.359-95.799 227.277-216.197l0.279-11.357c0-121.867-95.799-221.359-216.199-227.277l-11.357-0.277c-121.867 0-221.359 95.799-227.277 216.199l-0.279 11.357c0 121.867 95.799 221.359 216.199 227.277l11.357 0.279zM682.667 369.778l-6.635-0.383c-26.116-3.033-46.839-23.755-49.872-49.872l-0.383-6.635 0.383-6.635c3.033-26.116 23.755-46.837 49.872-49.872l6.635-0.383 6.635 0.383c26.116 3.033 46.837 23.755 49.872 49.872l0.383 6.635-0.383 6.635c-3.033 26.116-23.755 46.837-49.872 49.872l-6.635 0.383zM681.908 935.208c21.237 0 37.927-16.687 37.927-37.927v-118.329c0-21.237-16.687-37.925-37.927-37.925s-37.927 16.687-37.927 37.925v118.329c0 21.239 16.687 37.927 37.927 37.927zM917.055 906.38c3.033 0 6.068 0 9.087-1.517 19.736-6.068 31.873-25.789 27.321-47.028l-30.341-115.295c-4.565-21.237-25.789-31.857-45.511-27.307-19.736 6.068-31.873 25.789-27.321 47.028l30.341 115.295c4.567 16.688 19.736 28.824 36.424 28.824zM1138.527 813.842c6.084 0 13.669-1.517 18.204-4.551 18.22-10.619 24.288-33.373 13.669-51.579l-59.18-103.159c-10.619-18.204-33.373-25.789-51.564-15.169-18.204 10.619-24.288 33.375-13.653 51.579l59.164 103.159c7.587 12.136 19.721 19.721 33.36 19.721zM1326.652 666.691c10.619 0 19.723-3.033 27.307-10.619 15.171-15.171 15.171-39.443 0-53.097l-84.955-83.437c-15.171-15.171-39.459-15.171-53.096 0-15.171 15.171-15.171 39.443 0 53.096l83.437 83.437c7.587 7.585 16.688 10.619 27.307 10.619zM446.769 906.386c16.687 0 31.859-10.619 36.409-28.839l30.341-115.28c6.068-19.721-6.068-40.96-27.307-47.028-19.721-4.551-40.96 6.068-45.511 27.307l-30.341 115.295c-6.068 19.705 6.068 40.96 27.307 47.028 3.033 1.517 6.068 1.517 9.101 1.517zM225.283 813.842c13.653 0 25.791-6.068 33.375-19.721l59.164-103.159c10.619-18.204 4.551-40.96-13.653-51.579s-40.96-3.033-51.579 15.171l-59.164 103.159c-10.619 18.204-4.551 40.96 13.653 51.579 6.068 3.035 12.136 4.551 18.204 4.551zM38.681 666.691c10.619 0 19.721-3.033 27.307-10.619l83.437-83.437c13.653-13.653 13.653-37.927-1.517-53.096s-39.443-15.171-53.096 0l-83.437 83.437c-15.169 15.171-15.169 39.443 0 53.097 7.585 7.585 16.687 10.619 27.307 10.619z"/>
<glyph unicode="" glyph-name="location-pin-2" horiz-adv-x="683" d="M341.333 904.534c171.69 0 307.2-147.579 307.2-331.503 0-56.88-15.956-121.395-45.254-192.476-24.247-58.826-57.081-120.789-96.379-184.358-30.412-49.196-62.946-96.561-95.486-140.426l-21.648-28.639-22.093-27.951-26.339-31.956-31.148 37.888-17.285 22.019-21.648 28.639c-32.54 43.865-65.074 91.231-95.486 140.426-39.298 63.569-72.132 125.533-96.379 184.358-29.298 71.081-45.254 135.597-45.254 192.476 0 183.924 135.51 331.503 307.2 331.503zM341.333 836.267c-132.626 0-238.933-115.776-238.933-263.236 0-46.655 13.919-102.937 40.103-166.461 22.685-55.036 53.842-113.834 91.331-174.477 29.321-47.431 60.787-93.241 92.247-135.65l15.050-20.040 3.905 4.682 11.55 15.358c31.46 42.41 62.926 88.22 92.247 135.65 37.489 60.643 68.646 119.441 91.331 174.477 26.183 63.524 40.103 119.806 40.103 166.461 0 147.46-106.308 263.236-238.933 263.236zM341.333 713.387c74.16 0 131.686-62.613 131.686-140.356 0-77.612-57.524-140.195-131.686-140.288-74.147 0-131.686 62.6-131.686 140.288 0 77.743 57.526 140.356 131.686 140.356zM341.333 645.12c-35.105 0-63.42-30.818-63.42-72.090 0-41.21 28.32-72.021 63.377-72.021 35.127 0.044 63.462 30.871 63.462 72.021 0 41.271-28.314 72.090-63.42 72.090z"/>
<glyph unicode="" glyph-name="mail" horiz-adv-x="2235" d="M2133.617 769.763c19.064 47.689 2.192 75.813-40.561 75.813h-1117.091c-57.572 0-128.361-50.561-152.275-110.377l-260.669-651.672c-19.099-47.633-2.208-75.768 40.58-75.768h1117.091c57.539 0 128.269 50.531 152.281 110.397l260.643 651.608zM1959.4 83.562c-37.84-94.372-142.145-168.895-238.707-168.895h-1117.091c-111.423 0-169.676 97.031-126.997 203.468l260.651 651.627c37.713 94.339 142.112 168.904 238.711 168.904h1117.091c111.392 0 169.569-96.977 126.999-203.468l-260.655-651.636zM1319.393 391.698l629.76 354.795c22.397 12.617 50.781 4.691 63.399-17.705s4.691-50.781-17.705-63.399l-660.945-372.364c-18.385-10.357-41.441-7.051-56.173 8.059l-363.055 372.364c-17.947 18.407-17.573 47.875 0.833 65.82s47.875 17.573 65.82-0.833l338.067-346.735zM733.055 62.974c-20.917-14.943-49.988-10.097-64.929 10.821s-10.097 49.988 10.821 64.929l325.819 232.727c20.917 14.943 49.988 10.097 64.929-10.823s10.097-49.988-10.821-64.931l-325.819-232.727zM1769.915 124.796c13.225-22.043 6.077-50.635-15.965-63.86s-50.635-6.077-63.86 15.965l-139.636 232.727c-13.225 22.043-6.077 50.635 15.965 63.86s50.635 6.077 63.86-15.965l139.636-232.727zM512 938.667c25.705 0 46.545-20.839 46.545-46.545s-20.839-46.545-46.545-46.545h-465.455c-25.705 0-46.545 20.839-46.545 46.545s20.839 46.545 46.545 46.545h465.455zM232.727 100.85c25.705 0 46.545-20.839 46.545-46.545s-20.839-46.545-46.545-46.545h-186.181c-25.705 0-46.545 20.839-46.545 46.545s20.839 46.545 46.545 46.545h186.181zM325.817 566.303c25.707 0 46.545-20.839 46.545-46.545s-20.839-46.545-46.545-46.545h-279.273c-25.705 0-46.545 20.839-46.545 46.545s20.839 46.545 46.545 46.545h279.273z"/>
<glyph unicode="" horiz-adv-x="814" d="M245.060 803.009h315.077c65.255 0 118.154-52.899 118.154-118.154v-315.077c0-65.255-52.899-118.154-118.154-118.154h-315.077c-65.255 0-118.154 52.899-118.154 118.154v315.077c0 65.255 52.899 118.154 118.154 118.154z"/>
<glyph unicode="" horiz-adv-x="814" d="M406.974 938.667c224.398 0 406.974-182.579 406.974-407.004 0-174.554-270.27-479.69-406.974-615.792-136.688 136.102-406.974 441.238-406.974 615.792 0 224.425 182.563 407.004 406.974 407.004zM626.245 634.262l-223.839-88.938-223.856 88.938v-225.172l223.856-88.954 223.839 88.954v225.172zM402.406 776.061l-171.375-68.101 171.375-68.104 171.362 68.104-171.362 68.101z"/>
<glyph unicode="" horiz-adv-x="815" d="M263.758 771.879h279.273c57.839 0 104.727-46.888 104.727-104.727v-279.273c0-57.839-46.888-104.727-104.727-104.727h-279.273c-57.839 0-104.727 46.888-104.727 104.727v279.273c0 57.839 46.888 104.727 104.727 104.727z"/>
<glyph unicode="" horiz-adv-x="815" d="M407.273 892.122c198.899 0 360.727-161.832 360.727-360.754 0-154.718-239.557-425.18-360.727-545.816-121.155 120.636-360.727 391.097-360.727 545.816 0 198.922 161.817 360.754 360.727 360.754zM601.627 622.308l-198.403-78.831-198.418 78.831v-199.585l198.418-78.846 198.403 78.846v199.585zM403.224 747.994l-151.901-60.362 151.901-60.365 151.889 60.365-151.889 60.362z"/>
<glyph unicode="" horiz-adv-x="815" d="M407.273 938.667c224.609 0 407.273-182.674 407.273-407.299 0-72.522-41.852-165.694-109.582-266.5l-12.596-18.41c-8.583-12.325-17.532-24.751-26.818-37.254l-14.179-18.81c-2.404-3.144-4.829-6.292-7.273-9.443l-14.899-18.951c-17.65-22.156-36.225-44.46-55.572-66.788l-16.769-19.141c-2.825-3.19-5.665-6.38-8.52-9.57l-17.296-19.126c-5.821-6.371-11.696-12.737-17.621-19.095l-17.925-19.045c-3.012-3.169-6.035-6.336-9.070-9.499l-18.34-18.939-18.591-18.847-42.224-42.080-42.224 42.085-18.593 18.852-18.343 18.943c-3.035 3.164-6.059 6.331-9.071 9.501l-17.927 19.049c-2.963 3.179-5.913 6.361-8.851 9.544l-17.463 19.115c-11.532 12.753-22.841 25.521-33.897 38.281l-16.391 19.131-15.991 19.101-15.57 19.054c-5.117 6.342-10.161 12.673-15.128 18.99l-14.664 18.908c-2.404 3.144-4.788 6.283-7.151 9.418l-13.928 18.753-13.411 18.628c-78.872 111.361-128.668 215.033-128.668 294.144 0 224.629 182.656 407.299 407.273 407.299zM407.273 892.122c-198.91 0-360.727-161.832-360.727-360.754 0-83.132 69.166-199.68 151.964-308.447l13.916-18.049c2.337-2.994 4.683-5.98 7.035-8.957l14.188-17.753 14.298-17.503 14.35-17.211c2.393-2.842 4.786-5.669 7.177-8.482l14.322-16.693 14.231-16.294 21.053-23.602 13.756-15.113 20.071-21.631 12.923-13.667 12.49-13.014 17.797-18.204 11.157-11.197 17.137 17.266 12.197 12.525 12.7 13.24 19.864 21.104 20.661 22.464 14.117 15.658 14.321 16.151 21.734 25.055 14.571 17.191 14.566 17.529 14.501 17.822c2.408 2.992 4.811 5.995 7.208 9.008l14.292 18.18 14.078 18.363c81.381 107.563 148.781 222.194 148.781 304.26 0 198.922-161.829 360.754-360.727 360.754z"/>
<glyph unicode="" horiz-adv-x="815" d="M407.273-14.448c-121.155 120.636-360.727 391.097-360.727 545.816 0 198.922 161.817 360.754 360.727 360.754 198.899 0 360.727-161.832 360.727-360.754 0-154.718-239.557-425.18-360.727-545.816z"/>
<glyph unicode="" horiz-adv-x="815" d="M407.273 938.667c-224.617 0-407.273-182.671-407.273-407.299 0-79.111 49.797-182.784 128.668-294.144l13.411-18.628 13.928-18.753c2.363-3.135 4.747-6.275 7.151-9.418l14.664-18.908c4.966-6.317 10.010-12.648 15.128-18.99l15.57-19.054 15.991-19.101 16.391-19.131c11.056-12.76 22.364-25.528 33.897-38.281l17.463-19.115c2.937-3.183 5.888-6.364 8.851-9.544l17.927-19.049c3.012-3.17 6.036-6.337 9.071-9.501l18.343-18.943 18.593-18.852 42.224-42.085 42.224 42.080 18.591 18.847 18.34 18.939 18.069 19.014c8.963 9.523 17.816 19.068 26.547 28.625l17.296 19.126c2.854 3.189 5.694 6.379 8.52 9.57l16.769 19.141c19.347 22.328 37.922 44.632 55.572 66.788l14.899 18.951c2.444 3.152 4.869 6.299 7.273 9.443l14.179 18.81c9.286 12.503 18.235 24.929 26.818 37.254l12.596 18.41c67.73 100.806 109.582 193.978 109.582 266.5 0 224.625-182.664 407.299-407.273 407.299zM407.273 892.122c198.899 0 360.727-161.832 360.727-360.754 0-83.132-69.162-199.68-151.958-308.447l-13.916-18.049c-2.337-2.994-4.683-5.98-7.035-8.957l-14.188-17.753-14.298-17.503-14.35-17.211c-2.393-2.842-4.786-5.669-7.177-8.482l-14.322-16.693-14.232-16.294-14.084-15.853-13.88-15.37-20.311-22.057-13.119-13.977-12.714-13.345-18.188-18.741-16.956-17.082-11.157 11.197-17.797 18.204-18.9 19.768-19.811 21.189-13.618 14.845-20.899 23.239-14.165 16.079-14.284 16.499c-2.387 2.782-4.777 5.58-7.169 8.393l-14.355 17.049c-2.392 2.869-4.783 5.751-7.172 8.645l-14.298 17.503-14.188 17.753-14.021 17.961c-85.833 111.312-158.894 232.051-158.894 317.492 0 198.922 161.817 360.754 360.727 360.754z"/>
<glyph unicode="" horiz-adv-x="815" d="M625.581 653.273h-32.885v61.167c0 52.617-39.462 99.314-92.079 103.918-60.509 5.919-111.81-42.093-111.81-101.287v-63.798h-32.885c-19.731 0-36.832-13.154-42.093-31.57 28.281-29.597 45.382-69.059 45.382-113.126 0-16.443-2.631-32.228-7.235-47.355l86.16-86.16h187.447c24.335 0 44.066 19.731 44.066 44.066v190.735c0 23.677-19.731 43.409-44.066 43.409zM524.952 455.96c1.973-7.235-3.289-14.47-11.181-14.47h-46.040c-7.235 0-13.154 7.235-11.181 14.47l15.785 59.194c-12.496 6.577-21.047 19.731-21.047 34.858 0 21.704 17.758 39.462 39.462 39.462s39.462-17.758 39.462-39.462c0-15.127-8.55-28.281-21.047-34.858l15.785-59.194zM530.213 653.273h-78.925v63.798c0 21.704 17.758 39.462 39.462 39.462s39.462-17.758 39.462-39.462v-63.798z"/>
<glyph unicode="" horiz-adv-x="815" d="M299.358 450.041c9.866 17.1 15.127 36.832 15.127 57.878 0 65.771-53.932 119.703-119.703 119.703s-119.703-53.274-119.703-119.045c0-65.771 53.932-120.36 119.703-120.36 21.047 0 40.778 5.262 57.878 15.127l104.575-104.575-27.624-27.624c-7.892-7.892-7.892-19.731 0-27.624l44.066-44.066c7.892-7.892 19.731-7.892 27.624 0l28.281 28.281 5.919-5.919c6.577-6.577 15.127-9.866 23.677-9.866s17.1 3.289 23.677 9.866c13.154 13.154 13.154 34.201 0 46.697l-183.5 181.527zM194.783 454.645c-29.597 0-53.932 24.335-53.932 53.274 0 29.597 24.335 53.932 53.932 53.932s53.274-24.335 53.274-53.932c0.658-28.939-23.677-53.274-53.274-53.274z"/>
<glyph unicode="" horiz-adv-x="814" d="M406.974-84.129c-136.688 136.102-406.974 441.238-406.974 615.792 0 224.425 182.563 407.004 406.974 407.004 224.398 0 406.974-182.579 406.974-407.004 0-174.554-270.27-479.69-406.974-615.792z"/>
<glyph unicode="" horiz-adv-x="814" d="M653.271 669.196h-37.101v69.009c0 59.362-44.522 112.046-103.884 117.241-68.267 6.678-126.145-47.49-126.145-114.272v-71.977h-37.101c-22.261 0-41.554-14.841-47.49-35.617 31.907-33.391 51.2-77.913 51.2-127.629 0-18.551-2.968-36.359-8.162-53.426l97.206-97.206h211.478c27.455 0 49.716 22.261 49.716 49.716v215.188c0 26.713-22.261 48.974-49.716 48.974zM539.74 446.588c2.226-8.162-3.71-16.325-12.614-16.325h-51.942c-8.162 0-14.841 8.162-12.614 16.325l17.809 66.783c-14.099 7.42-23.745 22.261-23.745 39.328 0 24.487 20.035 44.522 44.522 44.522s44.522-20.035 44.522-44.522c0-17.067-9.646-31.907-23.745-39.328l17.809-66.783zM545.677 669.196h-89.043v71.977c0 24.487 20.035 44.522 44.522 44.522s44.522-20.035 44.522-44.522v-71.977z"/>
<glyph unicode="" horiz-adv-x="814" d="M285.225 439.909c11.13 19.293 17.067 41.554 17.067 65.299 0 74.203-60.846 135.049-135.049 135.049s-135.049-60.104-135.049-134.307c0-74.203 60.846-135.791 135.049-135.791 23.745 0 46.006 5.936 65.299 17.067l117.983-117.983-31.165-31.165c-8.904-8.904-8.904-22.261 0-31.165l49.716-49.716c8.904-8.904 22.261-8.904 31.165 0l31.907 31.907 6.678-6.678c7.42-7.42 17.067-11.13 26.713-11.13s19.293 3.71 26.713 11.13c14.841 14.841 14.841 38.586 0 52.684l-207.026 204.8zM167.242 445.104c-33.391 0-60.846 27.455-60.846 60.104 0 33.391 27.455 60.846 60.846 60.846s60.104-27.455 60.104-60.846c0.742-32.649-26.713-60.104-60.104-60.104z"/>
<glyph unicode="" glyph-name="locker" horiz-adv-x="964" d="M190.658 634.084c104.757 0 190.658-85.901 190.658-190.658 0-33.522-8.381-64.949-24.094-92.186v0l292.272-289.129c20.951-19.904 20.951-53.426 0-74.377-10.476-10.476-24.094-15.714-37.713-15.714s-27.237 5.238-37.713 15.714v0l-9.428 9.428-45.046-45.046c-12.571-12.571-31.427-12.571-43.998 0v0l-70.187 70.187c-12.571 12.571-12.571 31.427 0 43.998v0l43.998 43.998-166.564 166.564c-27.237-15.714-58.664-24.094-92.186-24.094-104.757 0-190.658 86.948-190.658 191.705s85.901 189.61 190.658 189.61zM499.691 776.553c0 94.281 81.71 170.754 178.087 161.326 83.806-7.333 146.66-81.71 146.66-165.516v0-97.424h52.379c38.76 0 70.187-31.427 70.187-69.14v0-303.795c0-38.76-31.427-70.187-70.187-70.187v0h-298.558l-137.232 137.232c7.333 24.094 11.523 49.236 11.523 75.425 0 70.187-27.237 133.041-72.282 180.182 8.381 29.332 35.617 50.283 67.045 50.283v0h52.379zM662.064 573.325c-34.57 0-62.854-28.284-62.854-62.854 0-24.094 13.618-45.046 33.522-55.521v0l-25.142-94.281c-3.143-11.523 6.285-23.047 17.809-23.047v0h73.33c12.571 0 20.951 11.523 17.809 23.047v0l-25.142 94.281c19.904 10.476 33.522 31.427 33.522 55.521 0 34.57-28.284 62.854-62.854 62.854zM190.658 529.327c-47.141 0-85.901-38.76-85.901-85.901 0-46.093 38.76-84.853 85.901-84.853s85.901 38.76 84.853 84.853c0 47.141-37.713 85.901-84.853 85.901zM662.064 839.408c-34.57 0-62.854-28.284-62.854-62.854v0-101.614h125.708v101.614c0 34.57-28.284 62.854-62.854 62.854z"/>
<glyph unicode="" glyph-name="plus" d="M984 466.667h-432v432c0 22.092-17.908 40-40 40s-40-17.908-40-40v-432h-432c-22.092 0-40-17.908-40-40s17.908-40 40-40h432v-432c0-22.092 17.908-40 40-40s40 17.908 40 40v432h432c22.092 0 40 17.908 40 40s-17.908 40-40 40z"/>
<glyph unicode="" horiz-adv-x="910" d="M375.467 836.267c-200.773 0-364.089-163.329-364.089-364.115 0-70.972 47.518-167.505 130.397-280.993l13.378-18.059c4.556-6.066 9.209-12.177 13.955-18.333l13.751-17.615 13.953-17.46 14.056-17.209 7.086-8.541 14.071-16.712 7.078-8.288 13.999-16.17 13.915-15.796 20.512-22.81 13.391-14.598 19.444-20.797 18.568-19.421 17.49-17.891 19.060-19.129 24.639 24.822 17.874 18.417 12.504 13.125 12.885 13.728 19.933 21.646 13.646 15.111 13.833 15.57 13.979 16.004 17.633 20.599 17.589 21.043 14.053 17.203 17.456 21.905 17.1 22.109c95.615 125.606 150.949 231.958 150.949 308.54 0 27.925-3.161 55.461-9.365 82.233l-2.040 8.805-22.723 0.010-5.501 0.085c-91.817 2.81-165.17 78.306-165.17 170.581v22.756l0.202 8.448c0.372 7.809 1.32 15.783 2.823 23.624l1.655 8.634-7.938 3.78c-48.373 23.038-101.381 35.158-156.032 35.158z"/>
<glyph unicode="" horiz-adv-x="910" d="M375.467 836.267c-200.773 0-364.089-163.329-364.089-364.115 0-70.972 47.518-167.505 130.397-280.993l13.378-18.059c4.556-6.066 9.209-12.177 13.955-18.333l13.751-17.615 13.953-17.46 14.056-17.209 7.086-8.541 14.071-16.712 7.078-8.288 13.999-16.17 13.915-15.796 20.512-22.81 13.391-14.598 19.444-20.797 18.568-19.421 17.49-17.891 19.060-19.129 24.639 24.822 17.874 18.417 12.504 13.125 12.885 13.728 19.933 21.646 13.646 15.111 13.833 15.57 13.979 16.004 17.633 20.599 17.589 21.043 14.053 17.203 17.456 21.905 17.1 22.109c95.615 125.606 150.949 231.958 150.949 308.54 0 27.925-3.161 55.461-9.365 82.233l-2.040 8.805-22.723 0.010-5.501 0.085c-91.817 2.81-165.17 78.306-165.17 170.581v22.756l0.202 8.448c0.372 7.809 1.32 15.783 2.823 23.624l1.655 8.634-7.938 3.78c-48.373 23.038-101.381 35.158-156.032 35.158zM385.694 813.36c44.22-1.308 87.117-11.089 126.897-28.614l1.366-0.635-1.093-9.117c-0.287-3.026-0.502-6.066-0.646-9.118l-0.215-8.985-0.003-23.024c0-104.581 83.131-190.14 187.404-193.33l5.844-0.091 4.657 0.021-1.883 8.781c5.814-25.091 8.777-50.903 8.777-77.096 0-41.982-19.291-95.852-54.741-158.527l-9.197-15.85c-7.942-13.358-16.574-27.088-25.867-41.16l-11.468-17.050c-13.746-20.080-28.766-40.81-44.983-62.114l-16.933-21.894-17.26-21.659-13.903-17.019-20.906-24.951-13.97-16.282-13.85-15.856-13.708-15.429-13.51-14.96-19.785-21.485-12.753-13.587-12.373-12.987-17.711-18.249-8.46-8.489-20.129 20.564-18.392 19.238-19.283 20.626-13.242 14.436-20.359 22.64-13.773 15.635-20.844 24.187-17.468 20.797-17.417 21.267-13.796 17.264-13.629 17.46-7.001 9.139-13.564 18.069-12.971 17.781c-8.447 11.755-16.491 23.312-24.118 34.654l-11.125 16.852c-54.040 83.44-84.175 154.454-84.175 206.941 0 188.219 153.128 341.359 341.333 341.359l10.227-0.151z"/>
<glyph unicode="" horiz-adv-x="910" d="M357.411 653.728c0 57.878 50.161 104.824 109.326 99.036 21.915-1.918 41.496-11.303 56.755-25.423l-0.113-4.852c0-35.517 12.518-68.11 33.384-93.608l0.008-37.533h32.155c23.794 0 43.087-19.293 43.087-42.444v0-186.497c0-23.794-19.293-43.087-43.087-43.087v0h-183.281l-84.245 84.245c4.502 14.791 7.074 30.225 7.074 46.303 0 43.087-16.72 81.673-44.373 110.612 5.145 18.007 21.865 30.868 41.158 30.868v0h32.155zM457.090 528.968c-21.222 0-38.586-17.363-38.586-38.586 0-14.791 8.36-27.653 20.579-34.084v0l-15.434-57.878c-1.929-7.074 3.859-14.148 10.933-14.148v0h45.016c7.717 0 12.862 7.074 10.933 14.148v0l-15.434 57.878c12.219 6.431 20.579 19.293 20.579 34.084 0 21.222-17.363 38.586-38.586 38.586zM457.090 692.313c-21.222 0-38.586-17.363-38.586-38.586v0-62.38h77.171v62.38c0 21.222-17.363 38.586-38.586 38.586z"/>
<glyph unicode="" horiz-adv-x="910" d="M269.95 392.633c9.646 16.72 14.791 36.013 14.791 56.592 0 64.309-52.734 117.043-117.043 117.043s-117.043-52.090-117.043-116.4c0-64.309 52.734-117.686 117.043-117.686 20.579 0 39.872 5.145 56.592 14.791l102.252-102.252-27.010-27.010c-7.717-7.717-7.717-19.293 0-27.010l43.087-43.087c7.717-7.717 19.293-7.717 27.010 0l27.653 27.653 5.788-5.788c6.431-6.431 14.791-9.646 23.151-9.646s16.72 3.215 23.151 9.646c12.862 12.862 12.862 33.441 0 45.66l-179.423 177.493zM167.699 397.134c-28.939 0-52.734 23.794-52.734 52.090 0 28.939 23.794 52.734 52.734 52.734s52.090-23.794 52.090-52.734c0.643-28.296-23.151-52.090-52.090-52.090z"/>
<glyph unicode="" horiz-adv-x="910" d="M728.178 938.667c100.54 0 182.044-81.504 182.044-182.044s-81.504-182.044-182.044-182.044c-100.54 0-182.044 81.504-182.044 182.044s81.504 182.044 182.044 182.044z"/>
<glyph unicode="" horiz-adv-x="910" d="M820.723 829.65l-127.407-136.607-53.953 57.312c-8.306 8.824-22.077 8.824-30.385 0-7.941-8.434-7.941-21.84-0.001-30.274l69.208-73.502c8.306-8.822 22.078-8.823 30.385 0l142.573 152.834c7.905 8.396 7.905 21.803-0.036 30.236-8.307 8.823-22.077 8.823-30.385 0.001z"/>
<glyph unicode="" horiz-adv-x="832" d="M193.778 657.778h261.333c53.019 0 96-42.981 96-96v-261.333c0-53.019-42.981-96-96-96h-261.333c-53.019 0-96 42.981-96 96v261.333c0 53.019 42.981 96 96 96z"/>
<glyph unicode="" horiz-adv-x="832" d="M352 768c41.417 0 81.080-7.655 117.649-21.624 5.685-95.055 84.555-170.376 181.017-170.376 0.493 0 0.985 0.002 1.477 0.006 19.591-42.2 30.523-89.196 30.523-138.697 0-141.825-219.594-389.748-330.667-500.331-111.059 110.583-330.667 358.506-330.667 500.331 0 182.345 148.332 330.691 330.667 330.691zM530.158 520.672l-181.869-72.262-181.883 72.262v-182.953l181.883-72.275 181.869 72.275v182.953zM348.288 635.883l-139.242-55.332 139.242-55.335 139.232 55.335-139.232 55.332z"/>
<glyph unicode="" horiz-adv-x="832" d="M352 778.667c38.492 0 76.142-6.41 111.785-18.8l9.67-3.527 6.43-2.456 0.411-6.871c5.265-88.034 77.004-157.517 164.925-160.262l5.403-0.084 8.315 0.033 2.879-6.202c20.665-44.514 31.515-93.114 31.515-143.188 0-62.128-40.039-146.697-103.874-238.997l-11.509-16.366c-5.875-8.22-11.927-16.493-18.146-24.81l-12.657-16.688c-6.436-8.37-13.032-16.777-19.775-25.21l-13.681-16.899-14.056-16.951-14.411-16.986c-4.861-5.666-9.778-11.334-14.747-17.003l-15.062-17.002c-5.071-5.665-10.192-11.327-15.358-16.983l-15.634-16.945-15.89-16.89-16.126-16.817-16.342-16.726-16.539-16.617-7.526-7.493-7.526 7.494c-5.544 5.521-11.059 11.062-16.541 16.622l-16.344 16.73-16.128 16.821c-2.669 2.81-5.328 5.623-7.977 8.439l-15.766 16.923c-2.606 2.825-5.201 5.652-7.784 8.48l-15.359 16.985-15.063 17.003-14.747 17.004-14.412 16.987c-4.746 5.657-9.432 11.309-14.057 16.952l-13.681 16.899-13.286 16.828c-2.18 2.798-4.343 5.592-6.489 8.382l-12.657 16.688c-2.073 2.772-4.127 5.539-6.163 8.302l-11.982 16.507-11.508 16.365c-63.831 92.294-103.862 176.849-103.862 238.974 0 188.237 153.109 341.358 341.333 341.358zM352 757.334c-176.442 0-320-143.569-320-320.024 0-64.691 49.434-159.355 125.428-261.937l12.216-16.26c6.215-8.16 12.589-16.361 19.109-24.594l13.233-16.504c2.237-2.757 4.489-5.516 6.757-8.277l13.782-16.593c4.652-5.538 9.361-11.082 14.124-16.628l14.445-16.644c2.433-2.774 4.879-5.548 7.337-8.322l14.89-16.632 15.161-16.6 15.412-16.548 15.644-16.477c2.625-2.739 5.26-5.475 7.902-8.206l15.953-16.334 8.608-8.688 16.605 16.835c2.659 2.722 5.309 5.448 7.952 8.179l15.75 16.431 15.529 16.512c2.569 2.758 5.127 5.518 7.675 8.28l15.16 16.597c2.505 2.769 4.998 5.54 7.479 8.312l14.745 16.639 14.444 16.643 14.123 16.627 13.782 16.593c4.535 5.523 9.010 11.037 13.421 16.539l13.039 16.465 12.638 16.372c2.072 2.72 4.126 5.435 6.162 8.145l11.999 16.197c68.695 94.090 114.353 180.98 119.089 243.418l0.305 5.292 0.102 5.169c0 43.824-8.856 86.413-25.781 125.812l-1.035 2.297c-93.659 2.697-170.966 72.438-184.448 163.575l-0.745 5.606-0.428 4.109-2.782 1.007c-26.991 9.382-55.211 15.105-84.096 16.956l-10.862 0.512-9.823 0.149zM540.824 536.388v-205.908l-192.536-76.514-192.55 76.514v205.908l192.528-76.505 192.558 76.505zM519.488 344.982v159.979l-171.2-68.028-171.222 68.028v-160l171.2-68.032 171.221 68.053zM180.162 580.551l168.126 66.81 168.113-66.81-168.113-66.813-168.126 66.813zM348.267 624.427l-110.357-43.861 110.357-43.861 110.357 43.861-110.357 43.861z"/>
<glyph unicode="" horiz-adv-x="832" d="M661.333 938.667c94.257 0 170.667-76.41 170.667-170.667s-76.41-170.667-170.667-170.667c-94.257 0-170.667 76.41-170.667 170.667s76.41 170.667 170.667 170.667z"/>
<glyph unicode="" horiz-adv-x="832" d="M748.095 836.464l-119.444-128.069-50.581 53.73c-7.787 8.272-20.697 8.272-28.486 0-7.445-7.907-7.445-20.475 0-28.382l64.882-68.908c7.787-8.27 20.698-8.271 28.486 0l133.663 143.282c7.411 7.872 7.411 20.44-0.034 28.347-7.787 8.272-20.697 8.272-28.486 0.001z"/>
<glyph unicode="" glyph-name="delivery-point" d="M833.723 768.218l-335.965 133.492-336.057-133.492 336.057-133.585zM58.833 623.74v-441.531l438.924-174.359 438.831 174.359v441.531l-438.831-174.452z"/>
<glyph unicode="" glyph-name="regular-close" d="M924.439 921.563l-412.43-412.43-412.43 412.43c-22.806 22.806-59.669 22.806-82.474 0s-22.806-59.669 0-82.474l412.43-412.43-412.43-412.43c-22.806-22.806-22.806-59.669 0-82.474 11.374-11.374 26.306-17.090 41.237-17.090s29.863 5.716 41.237 17.090l412.43 412.43 412.43-412.43c11.374-11.374 26.305-17.090 41.237-17.090s29.863 5.716 41.237 17.090c22.806 22.806 22.806 59.669 0 82.474l-412.43 412.43 412.43 412.43c22.806 22.806 22.806 59.727 0 82.474-22.806 22.806-59.669 22.806-82.474 0z"/>
<glyph unicode="" glyph-name="external-url" d="M975.783 937.822h-299.533c-26.104 0-47.262-21.157-47.262-47.262s21.157-47.262 47.262-47.262h185.433l-453.186-453.186c-18.458-18.458-18.458-48.38 0-66.838 9.232-9.227 21.325-13.842 33.419-13.842s24.187 4.616 33.419 13.842l453.186 453.186v-185.439c0-26.104 21.157-47.262 47.262-47.262s47.262 21.157 47.262 47.262v299.533c0 26.109-21.157 47.267-47.262 47.267zM782.441 543.765c-26.104 0-47.262-21.157-47.262-47.262v-464.507h-640.656v640.656h492.455c26.104 0 47.262 21.157 47.262 47.262s-21.157 47.262-47.262 47.262h-539.716c-26.104 0-47.262-21.157-47.262-47.262v-735.179c0-26.104 21.157-47.262 47.262-47.262h735.179c26.104 0 47.262 21.157 47.262 47.262v511.769c0 26.104-21.157 47.262-47.262 47.262z"/>
<glyph unicode="" glyph-name="promotion" d="M444.675 858.212c12.35 0 24.195-4.908 32.924-13.645v0l467.532-467.869c18.167-18.18 18.161-47.643-0.014-65.815v0l-317.361-317.324c-18.178-18.176-47.648-18.174-65.825 0.003v0l-467.495 467.532c-8.717 8.718-13.62 20.539-13.632 32.867v0l-0.299 317.66c-0.024 25.723 20.822 46.589 46.545 46.589v0zM314.058 699.47c-41.292 0-74.805-33.513-74.805-74.805s33.513-74.805 74.805-74.805c41.292 0 74.805 33.513 74.805 74.805s-33.513 74.805-74.805 74.805z"/>
<glyph unicode="" d="M512.959 267.916c21.179 0 38.377-13.761 38.377-30.701v-17.319c0-16.94-17.203-30.701-38.377-30.701h-1.967c-21.179 0-38.377 13.761-38.377 30.701v17.319c0 16.94 17.201 30.701 38.377 30.701h1.967z"/>
<glyph unicode="" d="M514.903 639.408c22.591 0 40.913-13.744 40.913-30.688v-256.7c0-16.947-18.291-30.667-40.875-30.667h-1.417c-22.587 0-40.883 13.72-40.883 30.664l-0.027 256.723c0 16.947 18.295 30.667 40.881 30.667h1.405z"/>
<glyph unicode="" glyph-name="warning" d="M165.359 795.137c198.297 186.763 510.426 183.16 704.368-10.775 170.059-170.088 196.059-435.108 66.158-633.955-18.97-29.142-41.124-56.451-66.158-81.448-197.554-197.582-517.878-197.582-715.42-0.016-26.306 26.273-49.461 55.16-69.243 86.188-126.507 198.484-99.386 460.693 69.199 629.237v0zM822.66 737.298c-171.606 171.6-449.751 171.61-621.334 0.002-146.395-146.359-169.95-374.099-60.136-546.392 17.185-26.954 37.297-52.044 60.169-74.888 171.563-171.585 449.739-171.585 621.318 0.018 21.767 21.736 40.988 45.429 57.455 70.726 112.79 172.654 90.208 402.829-57.472 550.534zM512.959 267.916c21.179 0 38.377-13.761 38.377-30.701v-17.319c0-16.94-17.202-30.701-38.377-30.701h-1.966c-21.179 0-38.377 13.761-38.377 30.701v17.319c0 16.94 17.202 30.701 38.377 30.701h1.966zM514.902 639.408c22.591 0 40.913-13.744 40.913-30.688v-256.7c0-16.947-18.291-30.667-40.874-30.667h-1.417c-22.587 0-40.882 13.72-40.882 30.664l-0.027 256.723c0 16.947 18.295 30.667 40.882 30.667h1.405z"/>
<glyph unicode="" glyph-name="checkbox-empty" d="M204.8 938.667c-113.108 0-204.8-91.692-204.8-204.8v-614.4c0-113.106 91.692-204.8 204.8-204.8h614.4c113.106 0 204.8 91.694 204.8 204.8v614.4c0 113.108-91.694 204.8-204.8 204.8h-614.4zM684.657 616.236c8.975 9.716 21.524 15.231 34.662 15.231 13.143 0 25.692-5.516 34.668-15.234 18.698-19.88 18.683-51.993-0.041-71.853l-303.911-322.514-180.024 191.017c-18.68 20.169-18.681 51.577-0.003 71.748 8.979 9.718 21.53 15.233 34.667 15.233 13.121 0 25.655-5.501 34.632-15.196l110.724-117.43 234.625 248.997z"/>
<glyph unicode="" d="M921.6 426.638c0-226.217-183.384-409.601-409.599-409.601s-409.6 183.384-409.6 409.601c0 226.215 183.385 409.6 409.6 409.6s409.599-183.385 409.599-409.6z"/>
<glyph unicode="" d="M585.378 272.782h162.281c2.633-0.044 5.252 0.473 7.695 1.518 7.834 3.187 13.012 11.134 13.049 20.013v202.062h-41.225v-148.924l-156.541 169.075c-7.692 8.405-20.321 8.773-28.438 0.828l-108.535-107.103-158.498 167.142-28.96-30.641 171.934-181.772c7.743-8.455 20.469-8.763 28.569-0.69l109.448 106.966 143.496-155.273h-114.275v-43.2z"/>
<glyph unicode="" glyph-name="rush-clock" horiz-adv-x="1639" d="M1589.207 426.667c0-253.711-205.693-459.379-459.377-459.379-253.783 0-459.377 205.619-459.377 459.379s205.595 459.379 459.377 459.379c253.685 0 459.377-205.668 459.377-459.379zM1179.607 570.88c0 37.703-30.564 68.267-68.267 68.267s-68.267-30.564-68.267-68.267v-149.144c0-19.136 8.031-37.393 22.137-50.323l162.703-149.144c27.793-25.477 70.976-23.599 96.453 4.193s23.599 70.976-4.193 96.453l-140.565 128.851v119.113zM440.732 395.836h-369.917c-12.171 0-22.023 13.812-22.023 30.831s9.851 30.831 22.023 30.831h369.917c12.171 0 22.023-13.812 22.023-30.831s-9.851-30.831-22.023-30.831zM517.147 603.816h-369.917c-12.171 0-22.021 13.791-22.021 30.829s9.851 30.831 22.021 30.831h369.917c12.171 0 22.023-13.791 22.023-30.831s-9.865-30.829-22.023-30.829zM517.147 194.412h-369.917c-12.171 0-22.021 13.812-22.021 30.831s9.851 30.831 22.021 30.831h369.917c12.171 0 22.023-13.812 22.023-30.831s-9.865-30.831-22.023-30.831z"/>
<glyph unicode="" glyph-name="bagg-orange" d="M996.547 796.331c-17.258 19.795-42.52 32.233-70.686 32.233-0.144 0-0.288 0-0.431-0.001h-736.039l-2.779 16.335c-6.437 52.663-52.565 93.769-105.082 93.769h-46.665c-19.282 0-34.914-15.631-34.914-34.914s15.631-34.914 34.914-34.914v0h46.665c17.31 0 33.841-15.604 36.084-34.036l35.401-204.702 62.123-438.223c6.339-52.565 51.931-93.72 103.863-93.72h594.895c18.713 0.722 33.609 16.066 33.609 34.889s-14.896 34.168-33.544 34.887l-0.065 0.002h-594.895c-16.725 0-32.67 15.116-34.767 33.012l-5.169 36.328 582.461 44.373c51.98 0 97.524 40.326 103.765 91.721l57.734 330.85c4.194 34.718-5.461 68.315-26.478 92.16zM328.509 57.881c-38.749-1.043-69.762-32.703-69.762-71.607s31.014-70.564 69.666-71.605l0.096-0.002c38.749 1.043 69.762 32.703 69.762 71.607s-31.014 70.564-69.666 71.605l-0.096 0.002zM841.289 57.881c-38.17-1.779-68.443-33.158-68.443-71.607s30.273-69.828 68.283-71.601l0.159-0.006c38.749 1.043 69.762 32.703 69.762 71.607s-31.014 70.564-69.666 71.605l-0.096 0.002z"/>
<glyph unicode="" glyph-name="question-mark" horiz-adv-x="945" d="M472.615 917.163c259.939 0 472.615-212.677 472.615-472.615s-212.677-472.615-472.615-472.615-472.615 212.677-472.615 472.615 212.677 472.615 472.615 472.615zM478.917 264.402c-16.779 0-30.72-5.751-41.748-17.329s-16.543-26.231-16.543-44.111c0-17.881 5.513-32.532 16.543-44.111s24.969-17.329 41.748-17.329c16.779 0 30.877 5.751 42.141 17.329s16.935 26.231 16.935 44.111c0 17.881-5.671 32.532-16.935 44.111s-25.364 17.329-42.141 17.329zM489.157 688.182c-29.932 0-56.871-6.459-80.737-19.299-19.141-10.24-36.155-22.843-51.043-37.652l-10.791-11.579 50.412-46.473c11.579 12.603 23.867 22.607 37.023 29.932s27.805 11.028 44.111 11.028c19.929 0 35.604-5.751 46.868-17.329s16.935-26.783 16.935-45.685c0-12.052-2.915-23.395-8.665-33.871s-12.997-21.111-21.663-31.901c-8.665-10.791-17.881-21.819-27.569-33.083s-18.353-23.473-25.993-36.628c-7.641-13.153-13.391-27.569-17.329-43.323-2.913-11.815-4.096-24.497-3.308-38.124l1.339-13.863h79.557c-2.127 16.779-0.629 32.059 4.332 45.687s11.579 26.545 19.692 38.597c8.113 12.052 17.329 23.631 27.569 34.659s19.849 22.607 28.751 34.659c8.901 12.052 16.384 24.812 22.449 38.203s9.057 28.513 9.057 45.292c0 21.504-3.545 40.409-10.635 56.715s-16.779 29.932-29.145 40.96-27.175 19.299-44.505 24.812c-17.329 5.515-36.233 8.271-56.713 8.271z"/>
<glyph unicode="" glyph-name="user-info" d="M512 426.667c140.8 0 256 115.2 256 256s-115.2 256-256 256-256-115.2-256-256 115.2-256 256-256zM512 298.667c-172.8 0-512-83.2-512-256v-128h1024v128c0 172.8-339.2 256-512 256z"/>
<glyph unicode="" glyph-name="discount-coupons" horiz-adv-x="1229" d="M944.231 862.891c-19.456 32.256-58.163 51.609-103.424 51.609h-711.475c-71.168 0-129.331-57.957-129.331-128.819v-643.584c0-70.861 58.163-128.717 129.331-128.717h711.475c45.261 0 83.968 19.251 103.424 51.405l284.569 399.155-284.569 398.949z"/>
<glyph unicode="" glyph-name="plus-bold" horiz-adv-x="922" d="M547.11-30.611v374.136h354.342v166.282h-354.342v374.136h-172.22v-374.136h-354.342v-166.282h354.342v-374.136z"/>
<glyph unicode="" glyph-name="credit-card" horiz-adv-x="1488" d="M1313.232 938.667h-1151.942c-88.933 0-161.29-72.356-161.29-161.27v-691.181c0-88.933 72.356-161.29 161.27-161.29h1151.981c88.933 0 161.27 72.356 161.27 161.29v691.181c0 88.914-72.337 161.27-161.27 161.27zM161.29 846.507h1151.981c38.101 0 69.11-31.010 69.11-69.11v-92.16h-1290.221v92.16c0 38.101 31.010 69.11 69.11 69.11zM1313.27 17.086h-1152c-38.101 0-69.11 31.010-69.11 69.13v506.861h1290.201v-506.861c0-38.12-31.010-69.13-69.11-69.13zM322.56 155.326h-46.080c-25.445 0-46.080 20.635-46.080 46.080v46.080c0 25.445 20.635 46.080 46.080 46.080h46.080c25.445 0 46.080-20.635 46.080-46.080v-46.080c0-25.445-20.635-46.080-46.080-46.080z"/>
<glyph unicode="" glyph-name="logout" d="M640 383.995c-23.594 0-42.664-19.117-42.664-42.664v-170.672c0-23.508-19.117-42.664-42.672-42.664h-128v640c0 36.437-23.211 68.992-58.109 81.109l-12.633 4.227h198.742c23.555 0 42.672-19.156 42.672-42.672v-128c0-23.547 19.070-42.664 42.664-42.664s42.664 19.117 42.664 42.664v128c0 70.57-57.43 128-128 128h-458.664c-1.625 0-2.984-0.727-4.562-0.937-2.055 0.172-4.016 0.937-6.102 0.937-47.063 0-85.336-38.266-85.336-85.328v-768c0-36.438 23.211-68.992 58.109-81.109l256.773-85.594c8.703-2.688 17.359-3.969 26.453-3.969 47.062 0 85.328 38.273 85.328 85.336v42.664h128c70.57 0 128 57.43 128 128v170.672c0 23.547-19.070 42.664-42.664 42.664zM1011.5 542.159l-170.672 170.664c-12.195 12.203-30.547 15.875-46.5 9.266-15.914-6.617-26.328-22.187-26.328-39.43v-128h-170.664c-23.555 0-42.672-19.109-42.672-42.664s19.117-42.664 42.672-42.664h170.664v-128c0-17.242 10.414-32.813 26.328-39.43 15.953-6.609 34.305-2.938 46.5 9.258l170.672 170.672c16.68 16.68 16.68 43.648 0 60.328z"/>
<glyph unicode="" glyph-name="search-not-found" d="M452.613 902.096c229.485 0 416.042-180.112 416.042-401.249 0-94.482-34.399-185.397-97.468-257.779v0l-7.457-8.559 211.678-212.76 2.59-2.845c13.783-16.591 12.406-40.832-3.79-55.879-8.173-7.595-18.961-11.786-30.411-11.786-12.097 0-23.287 4.598-31.622 12.956v0l-212.705 213.787-8.36-5.672-8.842-5.84c-68.256-43.867-147.096-66.872-229.653-66.872-229.485 0-416.042 180.112-416.042 401.249s186.557 401.249 416.042 401.249zM452.613 806.432c-174.533 0-316.519-137.082-316.519-305.586s141.987-305.586 316.519-305.586c174.533 0 316.519 137.082 316.519 305.586s-141.987 305.586-316.519 305.586zM365.714 377.905c0 40.396 38.205 73.143 85.333 73.143s85.333-32.747 85.333-73.143v0zM390.095 585.143c0-20.198-16.374-36.571-36.571-36.571s-36.571 16.374-36.571 36.571c0 20.198 16.374 36.571 36.571 36.571s36.571-16.374 36.571-36.571zM585.143 585.143c0-20.198-16.374-36.571-36.571-36.571s-36.571 16.374-36.571 36.571c0 20.198 16.374 36.571 36.571 36.571s36.571-16.374 36.571-36.571z"/>
<glyph unicode="" glyph-name="modern-menu" d="M512 119.467c56.554 0 102.4-45.846 102.4-102.4s-45.846-102.4-102.4-102.4h-409.6c-56.554 0-102.4 45.846-102.4 102.4s45.846 102.4 102.4 102.4h409.6zM921.6 529.067c56.554 0 102.4-45.846 102.4-102.4s-45.846-102.4-102.4-102.4h-819.2c-56.554 0-102.4 45.846-102.4 102.4s45.846 102.4 102.4 102.4h819.2zM921.6 938.667c56.554 0 102.4-45.846 102.4-102.4s-45.846-102.4-102.4-102.4h-819.2c-56.554 0-102.4 45.846-102.4 102.4s45.846 102.4 102.4 102.4h819.2z"/>
<glyph unicode="" glyph-name="credit-card-filled" horiz-adv-x="1408" d="M1408 710.443v74.24c0 85.056-68.928 153.984-153.984 153.984h-1100.032c-85.056 0-153.984-68.928-153.984-153.984v-74.24c0-7.616 6.144-13.76 13.76-13.76h1380.48c7.616 0 13.76 6.144 13.76 13.76zM0 594.923v-470.272c0-85.056 68.928-153.984 153.984-153.984h1100.032c85.056 0 153.984 68.928 153.984 153.984v470.336c0 7.616-6.144 13.76-13.76 13.76h-1380.48c-7.616 0-13.76-6.144-13.76-13.76zM352 234.667c0-24.32-19.712-44.032-44.032-44.032h-43.968c-24.32 0-44.032 19.712-44.032 44.032v44.032c0 24.32 19.712 43.968 44.032 43.968h44.032c24.32 0 43.968-19.712 43.968-44.032v-43.968z"/>
<glyph unicode="" glyph-name="my-reviews" d="M0 836.267v-563.2c0-55.501 46.899-102.4 102.4-102.4h136.533v-170.667c0-7.049 4.335-13.38 10.907-15.923 2.013-0.785 4.096-1.143 6.161-1.143 4.709 0 9.317 1.947 12.629 5.581l165.581 182.153h487.391c55.501 0 102.4 46.899 102.4 102.4v563.2c0 55.501-46.899 102.4-102.4 102.4h-819.2c-55.501 0-102.4-46.899-102.4-102.4zM682.667 563.2c0 37.649 30.619 68.267 68.267 68.267s68.267-30.619 68.267-68.267c0-37.649-30.619-68.267-68.267-68.267s-68.267 30.619-68.267 68.267zM443.733 563.2c0 37.649 30.617 68.267 68.267 68.267s68.267-30.619 68.267-68.267c0-37.649-30.619-68.267-68.267-68.267s-68.267 30.619-68.267 68.267zM204.8 563.2c0 37.649 30.617 68.267 68.267 68.267s68.267-30.619 68.267-68.267c0-37.649-30.617-68.267-68.267-68.267s-68.267 30.619-68.267 68.267z"/>
<glyph unicode="" glyph-name="my-orders" horiz-adv-x="945" d="M0 735.048l420.076-140.997v-620.071l-417.319 147.061zM523.659-27.989l421.573 149.031v609.989l-420.155-135.009zM472.221 666.519l385.653 129.812-385.653 120.832-394.635-120.753z"/>
<glyph unicode="" glyph-name="shippings-filled" horiz-adv-x="1446" d="M49.875 270.838v604.762c0 33.611 27.226 60.838 60.838 60.838h604.521c33.611 0 60.838-27.226 60.838-60.838v-604.762c0-11.204-9.035-20.299-20.239-20.299h-685.658c-11.204 0-20.299 9.035-20.299 20.299zM538.022 63.629c0-69.752-56.501-126.253-126.193-126.253s-126.193 56.501-126.193 126.253c0 69.692 56.501 126.193 126.193 126.193s126.193-56.501 126.193-126.193zM474.955 63.629c0 34.816-28.311 63.066-63.127 63.066-34.876 0-63.127-28.25-63.127-63.066 0-34.876 28.311-63.127 63.127-63.127s63.127 28.311 63.127 63.127zM303.104 189.822h-282.805c-11.204 0-20.299-9.035-20.299-20.299v-61.5c0-11.204 9.035-20.299 20.299-20.299h226.665c5.963 40.599 26.443 76.499 56.139 102.099zM1198.441 63.629c0-69.752-56.561-126.253-126.253-126.253s-126.193 56.501-126.193 126.253c0 69.692 56.501 126.193 126.193 126.193s126.253-56.501 126.253-126.193zM1135.315 63.629c0 34.816-28.311 63.066-63.127 63.066s-63.066-28.25-63.066-63.066c0-34.876 28.25-63.127 63.066-63.127 34.876 0 63.127 28.311 63.127 63.127zM1421.553 169.462v-61.5c0-11.204-9.035-20.299-20.299-20.299h-164.201c-11.746 80.535-81.077 142.697-164.864 142.697-83.727 0-153.058-62.163-164.804-142.758h-330.692c-5.963 40.659-26.504 76.499-56.139 102.159h313.525v580.307c0 22.408 18.191 40.538 40.599 40.538h191.548c53.85 0 104.207-26.805 134.445-71.439l123.482-182.874c18.071-26.805 27.708-58.428 27.708-90.835v-275.637h49.393c11.204 0 20.299-9.035 20.299-20.299zM1215.789 551.535l-98.786 140.348c-3.735 5.361-9.939 8.553-16.565 8.553h-153.961c-11.204 0-20.299-9.035-20.299-20.299v-140.228c0-11.204 9.035-20.239 20.299-20.239h252.687c16.444 0 26.082 18.492 16.625 31.925z"/>
<glyph unicode="" glyph-name="user-orange" horiz-adv-x="973" d="M486.667 922.267c141.333-0.133 255.867-114.667 256-256 0-104.667-62.933-194.667-152.933-234.4 212-46.933 370.533-236.133 370.533-462.267 0-19.467-14.4-35.467-33.2-38l-5.2-0.4h-870.4c-21.2 0-38.4 17.2-38.4 38.4 0 226.133 158.533 415.333 370.533 462.4-90 39.467-152.933 129.467-152.933 234.267 0 137.6 108.667 249.867 244.933 255.733l11.067 0.267z"/>
<glyph unicode="" glyph-name="discount-arrow" horiz-adv-x="597" d="M581.134 176.479l-255.98-248.969c-20.384-17.468-40.779-17.468-58.9 2.185l-253.718 246.786c-22.659 39.315-18.122 63.329 43.041 67.703l192.553-2.18v650.806c0 26.207 20.384 45.859 47.567 45.859s49.841-19.652 49.841-45.859v-650.806l197.079-2.181c54.364-4.374 70.224-24.026 38.504-63.329l0.014-0.013z"/>
<glyph unicode="" glyph-name="heart-orange" horiz-adv-x="1178" d="M12.8 604.28c0-162.313 93.984-318.831 251.413-466.199 56.271-52.674 117.694-101.213 180.91-145.021l15.625-10.71 29.668-19.674c19.023-12.33 36.463-23.073 51.899-32.146l17.509-10.048c11.95-6.561 26.484-6.294 38.185 0.702l23.716 14.858 29.159 19.211c10.193 6.867 20.839 14.193 31.873 21.958 63.023 44.356 126.047 94.055 185.006 148.044 171.954 157.459 276.018 318.913 275.993 479.083l-0.195 12.514c-10.238 326.323-420.635 398.428-561.713 156.447l-3.084-5.434-3.614 6.693c-142.698 252.687-562.35 184.669-562.35-170.277z"/>
<glyph unicode="" d="M963.969 544.368l-47.808-134.726-30.141-9.187-32.088-15.22-23.823-21.233-15.729-28.299 4.098-33.465 21.668-34.505 36.391-28.24-43.413-138.447-761.89 222.035 33.62 141.65 49.675 3.558 41.349 21.591 29.743 26.534-13.238 53.536-42.087 45.468-7.888 24.133 39.403 141.24 761.961-226.565 0.196-9.857z"/>
<glyph unicode="" d="M1015.825 600.125l-60.247-216.861-28.461 7.458c-31.305 8.214-64.156-11.092-72.995-42.889-8.82-31.811 9.553-64.543 40.858-72.757v0l28.478-7.471-60.232-216.875-854.038 223.938 60.247 216.861 28.461-7.46c31.305-8.214 64.156 11.092 72.977 42.903 8.85 31.815-9.524 64.549-40.858 72.759v0l-28.461 7.46 60.232 216.875 854.038-223.94zM942.813 557.247l-284.672 74.631-16.049-57.851-56.945 14.961 16.070 57.809-398.555 104.495-29.108-104.809c45.528-25.693 69.229-80.586 54.281-134.456-14.954-53.84-63.86-89.696-116.53-89.645v0l-29.091-104.822 398.525-104.499 16.053 57.822 56.955-14.914-16.082-57.826 284.676-74.662 29.122 104.828c-45.545 25.707-69.229 80.586-54.264 134.443 14.935 53.853 63.843 89.71 116.513 89.656v0l29.102 104.838zM589.879 386.090l-20.073-72.286-56.941 14.933 20.073 72.286 56.941-14.933zM626.025 516.206l-20.073-72.286-56.941 14.931 20.073 72.286 56.941-14.931z"/>
<glyph unicode="" glyph-name="tag" d="M442.374 824.829l483.516-483.865-328.211-328.172-483.478 483.516-0.309 328.52h328.482zM307.291 708.797c-42.704 0-77.363-34.658-77.363-77.363s34.658-77.363 77.363-77.363c42.704 0 77.363 34.658 77.363 77.363s-34.658 77.363-77.363 77.363zM442.374 864.214h-328.482c-21.766 0-39.405-17.656-39.385-39.422l0.309-328.52c0.010-10.432 4.158-20.434 11.534-27.811l483.478-483.516c15.38-15.381 40.316-15.382 55.698-0.003l328.211 328.172c15.378 15.376 15.384 40.307 0.012 55.69l-483.516 483.865c-7.387 7.392-17.409 11.546-27.859 11.546zM426.063 785.461l444.101-444.416-272.463-272.542-444.18 444.18-0.315 272.778h272.857z"/>
<glyph unicode="" glyph-name="arrow-down" horiz-adv-x="2276" d="M1195.691 23.666l986.908 740.466c24.121 24.007 24.121 62.578 0 86.585-23.893 24.121-62.578 24.121-86.585 0l-977.806-722.716-977.92 722.716c-24.007 24.121-62.578 24.121-86.585 0-11.833-11.719-18.204-27.648-18.204-43.008 0-15.474 5.916-31.403 18.204-43.236l986.908-740.352c22.3-16.725 49.493-25.941 77.596-26.169 27.876 0 55.182 8.988 77.483 25.714z"/>
<glyph unicode="" glyph-name="arrow-up" horiz-adv-x="2432" d="M1305.216 909.739l1110.272-832.896c27.136-27.136 27.136-70.4 0-97.536-26.88-27.008-70.4-27.008-97.408 0l-1100.16 813.056-1100.032-813.056c-27.008-27.008-70.4-27.008-97.408 0-13.312 13.312-20.48 31.104-20.48 48.512 0 17.28 6.656 35.2 20.48 48.512l1110.272 832.896c25.088 18.944 55.68 29.184 87.168 29.44 31.488 0 62.208-9.984 87.296-28.928z"/>
<glyph unicode="" glyph-name="merchant" horiz-adv-x="1079" d="M173.887-48.568v0zM933.457-51.758c15.608 0 29.405 12.801 29.405 28.705v434.897c11.771-2.709 16.255-4.283 24.792-4.283 49.453 0 86.319 51.685 88.819 85.545l1.423 15.991h-1.207c0.12 1.539 0.004 3.087-0.345 4.588-0.773 2.231-2.147 4.199-3.967 5.68l-123.225 409.251c-1.828 6.012-7.331 10.096-13.539 10.049h-793.331c-6.257 0-11.775-4.153-13.581-10.224l-121.371-408.027c-2.863-1.761-5.004-4.507-6.036-7.733-0.431-1.353-0.259-3.583-0.259-3.583h-1.035l1.164-15.991c2.501-33.86 39.58-85.284 89.077-85.284 8.537 0 13.021 1.311 24.792 4.020v-434.897c0-15.903 13.797-28.705 29.448-28.705h788.976zM777.335 509.1l-53.205 405.712h84.937l88.56-405.712h-120.293zM478.973 509.1l17.591 405.712h81.619l16.815-405.712h-116.025zM181.043 509.1l87.611 405.712h85.499l-54.197-405.712h-118.913zM173.887 151.098v294.649c11.771-21.015 38.545-38.229 67.175-38.229 32.596 0 58.681 22.281 74.073 47.099 15.349-24.816 41.909-47.099 74.461-47.099 32.596 0 59.327 22.281 74.677 47.099 15.349-24.816 42.209-47.099 74.763-47.099 32.596 0 59.5 22.281 74.849 47.099 15.349-24.816 42.253-47.099 74.805-47.099 32.639 0 59.5 22.281 74.892 47.099 15.349-24.816 40.659-47.099 73.255-47.099 28.629 0 55.361 17.215 67.131 38.229v-294.649h-730.080z"/>
<glyph unicode="" glyph-name="like" d="M106.666 510.667c-58.794 0-106.666-47.872-106.666-106.666v-341.334c0-58.794 47.872-106.666 106.666-106.666h128c24.022 0 46.122 8.106 64 21.59v533.076h-192zM1024 350.667c0 25.642-10.154 49.536-27.776 67.158 19.926 21.802 30.080 51.030 27.306 81.45-4.992 54.23-53.846 96.726-111.274 96.726h-263.552c13.056 39.638 33.962 112.298 33.962 170.666 0 92.544-78.634 170.666-128 170.666-44.33 0-75.99-24.96-77.354-25.984-5.034-4.054-7.978-10.198-7.978-16.682v-144.682l-122.88-266.198-5.12-2.602v-457.302c34.73-16.384 78.676-25.216 106.666-25.216h391.638c46.464 0 87.126 31.318 96.682 74.538 4.906 22.23 2.048 44.63-7.722 64.086 31.53 15.872 52.736 48.342 52.736 85.376 0 15.104-3.456 29.568-10.026 42.666 31.53 15.872 52.692 48.342 52.692 85.334z"/>
<glyph unicode="" glyph-name="my-wallet" horiz-adv-x="887" d="M188.533 646.667l336.8 173.733-74.267 85.6-285.333-260.667h21.2c0.533 0.533 1.067 0.933 1.6 1.333zM625.733 165.334c-17.467 0-30.8 15.733-30.8 33.333l-5.867 156.267c0 17.6 13.333 33.067 30.8 33.067h217.467l-0.8 187.467c0 13.867-4.133 25.6-11.2 33.867-6.933 8.133-16.8 13.333-31.467 13.467h-95.333l-83.333 171.733-384.4-198.533h479.467l24.533-50.4c15.333-1.6 28-9.6 36.133-20.667 9.067-12.4 13.333-28 13.067-43.6v-63.6c1.2-3.733-0.667-7.067-3.867-8.933s-7.067-1.867-10.267 0-5.867 8.933-5.867 8.933l-0.8 63.067c0 11.733-3.6 23.467-9.467 31.467s-13.733 13.067-25.2 13.067l-623.067-0.267c-20.133 0-38.667 5.2-52.933 14.267-3.067 2-5.867 4-8.533 6.4l0.267-526.4c0.133-11.067 6.533-21.867 18.8-30.267 12.4-8.533 30.4-14.4 50.533-14.4h609.333c21.867 0 42.933 17.867 42.933 44.667l6.8 119.2c0 3.733 1.867 7.067 5.067 8.933s7.067 1.867 10.267 0 5.067-5.333 5.067-8.933l-6.8-115.333c14.267 0.8 27.067 4.4 36 10.533 10.133 7.067 15.867 16.533 15.867 32.533l6.8 99.067h-219.2zM62.667 556.534c10.667-6.8 25.867-11.2 42.533-11.2h30.133c0.133 0.133 0.267 0.267 0.267 0.267l84.533 77.067h-103.467c-21.333 0.133-40.267-6-53.467-15.067-9.867-6.8-16.267-15.067-18.933-23.733 0.4-0.933 0.533-1.867 0.667-2.933 1.2-8.667 7.067-17.6 17.733-24.4zM645.333 331.334v-102.267c0-7.867 4.4-13.067 8.8-13.067h181.867v128h-181.867c-4.4 0-8.8-4.8-8.8-12.667z"/>
<glyph unicode="" horiz-adv-x="1078" d="M500.682 938.667h41.768c276.519 0 500.682-224.163 500.682-500.682v-0.054c0-276.519-224.163-500.682-500.682-500.682h-41.768c-276.519 0-500.682 224.163-500.682 500.682v0.054c0 276.519 224.163 500.682 500.682 500.682z"/>
<glyph unicode="" horiz-adv-x="1078" d="M506.341 630.281c34.87 0 62.087-9 81.597-27.055 19.564-18.001 29.319-41.768 29.319-71.249 0-18.432-3.503-35.732-10.617-52.062-7.060-16.276-17.139-32.552-30.181-48.829-13.043-16.33-28.726-33.091-47.158-50.338l-35.139-32.66-25.762-23.66h123.581l-12.665-66.129h-244.898l8.623 44.84 81.381 66.722c24.307 19.941 45.11 38.696 62.356 56.32s30.558 34.277 39.936 50.014c9.432 15.737 14.12 31.636 14.12 47.697 0 13.043-3.773 23.714-11.21 31.906-7.491 8.246-18.486 12.396-33.091 12.396-10.348 0-20.211-2.695-29.588-8.084-7.006-3.988-14.444-9-22.259-14.983l-7.923-6.252-37.942 45.379 8.839 7.222c14.713 11.426 29.48 20.48 44.355 27.001 17.785 7.869 35.894 11.803 54.326 11.803zM906.024 623.383l-43.116-215.579h41.93l-11.48-60.955h-41.984l-17.785-88.549h-71.896l17.839 88.549h-151.121l10.348 55.188 173.595 221.346h93.723zM383.299 534.241l-107.52-250.072h-25.546l106.927 250.072h26.139zM324.554 568.033l-7.384-37.080-10.024-9.485c-16.276-15.899-30.073-32.013-41.499-48.29-13.635-19.564-25.061-39.235-34.277-59.069-9.162-19.833-16.6-39.72-22.205-59.715-3.719-13.312-7.168-26.678-10.348-40.044l-4.527-20.103h-60.793l4.851 17.624c4.958 17.3 10.132 33.792 15.629 49.421 7.33 20.857 15.683 40.529 25.007 59.069 9.378 18.54 19.725 35.948 31.043 52.17 8.515 12.18 18.001 23.821 28.349 34.978l10.671 10.941h-115.928l9.917 49.583h181.517zM823.242 554.398h-2.317l-10.725-16.815-10.24-17.139c-4.473-7.653-9.108-15.091-13.797-22.205l-7.222-10.563-62.626-79.872h74.698l13.258 65.536 2.803 13.15 3.072 13.42 8.354 34.223 4.743 20.264z"/>
<glyph unicode="" horiz-adv-x="796" d="M341.333 805.926c188.207 0 341.333-153.126 341.333-341.352 0-62.464-41.263-144.877-97.489-227.688l-10.714-15.55c-7.244-10.335-14.696-20.67-22.319-30.948l-11.529-15.398-5.841-7.661-11.814-15.208-11.947-15.076-12.041-14.905-12.136-14.677-12.136-14.469-12.098-14.184-6.049-7.016-12.023-13.729-11.909-13.426-11.757-13.047-11.567-12.667-11.359-12.25-16.498-17.522-10.619-11.074-10.24-10.543-19.247-19.437-19.247 19.437-10.24 10.543-10.619 11.074-10.923 11.567-16.915 18.204-11.567 12.667-17.711 19.721-11.966 13.577-12.079 13.919-12.117 14.184-12.136 14.469-12.098 14.677-12.060 14.905-11.947 15.076c-1.972 2.522-3.963 5.044-5.916 7.585l-11.738 15.284-5.784 7.68-11.416 15.436c-69.689 95.365-124.852 194.238-124.852 266.468 0 188.226 153.126 341.352 341.333 341.352z"/>
<glyph unicode="" horiz-adv-x="796" d="M341.333 786.963c-177.74 0-322.37-144.631-322.37-322.389 0-49.512 29.487-117.4 77.976-193.346l9.292-14.336 4.836-7.225 9.956-14.601 10.354-14.734c5.272-7.396 10.695-14.848 16.27-22.357l11.302-15.038 11.662-15.151 5.954-7.604 12.174-15.265 12.478-15.322 6.353-7.68 12.933-15.398 13.198-15.417 13.464-15.417 6.827-7.699 13.824-15.398 14.033-15.379 14.279-15.322 14.45-15.265 14.62-15.189 7.377-7.585 8.742-8.875 16.365 16.668 14.848 15.417c4.911 5.139 9.785 10.316 14.639 15.493l14.469 15.55 7.149 7.775 14.127 15.625 6.959 7.813 13.767 15.644 13.502 15.644 13.217 15.625c2.181 2.598 4.361 5.196 6.504 7.813l12.781 15.55 6.258 7.775 12.288 15.474 6.011 7.718 11.776 15.36 11.397 15.246c3.736 5.063 7.415 10.107 11.017 15.113l10.619 14.981c62.483 89.543 102.552 170.875 104.619 228.693l0.076 4.627c0 177.74-144.631 322.389-322.37 322.389z"/>
<glyph unicode="" horiz-adv-x="796" d="M330.316 728.842h22.035c145.941 0 264.249-118.308 264.249-264.249v-0.019c0-145.941-118.308-264.249-264.249-264.249h-22.035c-145.941 0-264.249 118.308-264.249 264.249v0.019c0 145.941 118.308 264.249 264.249 264.249z"/>
<glyph unicode="" horiz-adv-x="796" d="M333.293 566.083c18.394 0 32.768-4.741 43.084-14.26 10.316-9.5 15.474-22.054 15.474-37.623 0-9.709-1.877-18.868-5.613-27.458s-9.045-17.199-15.929-25.79c-6.884-8.59-15.17-17.446-24.879-26.548s-20.423-19.020-32.161-29.734h65.233l-6.675-34.892h-129.252l4.551 23.666 42.932 35.195c12.838 10.524 23.817 20.423 32.92 29.734 9.102 9.292 16.119 18.11 21.087 26.396 4.949 8.287 7.433 16.687 7.433 25.183 0 6.884-1.972 12.497-5.916 16.839-3.944 4.361-9.766 6.523-17.446 6.523-5.461 0-10.676-1.422-15.625-4.248-4.949-2.844-10.259-6.58-15.929-11.226l-20.025 23.969 4.665 3.793c7.775 6.049 15.55 10.809 23.4 14.26 9.406 4.153 18.963 6.22 28.672 6.22zM544.237 562.442l-22.756-113.778h22.149l-6.068-32.161h-22.149l-9.406-46.725h-37.926l9.406 46.725h-79.796l5.461 29.127 91.629 116.812h49.455zM268.364 515.414l-56.737-131.982h-13.502l56.434 131.982h13.805zM237.34 533.239l-3.868-19.57-5.31-5.025c-8.59-8.382-15.872-16.877-21.883-25.467-7.206-10.316-13.236-20.708-18.091-31.175s-8.761-20.973-11.719-31.516c-2.958-10.543-5.575-21.125-7.851-31.744h-32.085l2.56 9.292c2.598 9.14 5.348 17.844 8.249 26.093 3.868 10.999 8.268 21.39 13.198 31.175s10.392 18.963 16.384 27.534c5.992 8.571 12.857 16.649 20.594 24.235h-61.212l5.234 26.169h95.801zM500.546 526.033h-1.214l-5.651-8.875-5.423-9.026c-3.546-6.068-7.225-11.833-11.074-17.294l-33.071-42.174h39.443l6.978 34.588 1.479 6.94c1.043 4.684 2.162 9.444 3.375 14.298 1.82 7.282 3.546 14.469 5.158 21.542z"/>
<glyph unicode="" horiz-adv-x="796" d="M607.82 929.186c-100.049 0-181.153-81.105-181.153-181.153 0-100.030 81.105-181.134 181.153-181.134 100.030 0 181.134 81.105 181.134 181.134 0 100.049-81.105 181.153-181.134 181.153z"/>
<glyph unicode="" horiz-adv-x="796" d="M607.82 910.223c89.562 0 162.171-72.628 162.171-162.19s-72.609-162.171-162.171-162.171c-89.581 0-162.19 72.609-162.19 162.171 0 89.581 72.628 162.19 162.19 162.19z"/>
<glyph unicode="" horiz-adv-x="796" d="M695.998 835.015l-121.041-129.783-51.807 54.993c-7.339 7.813-19.494 7.813-26.833 0-7.035-7.452-7.035-19.342 0-26.833l65.271-69.31c7.339-7.775 19.494-7.775 26.833 0l134.447 144.119c6.997 7.452 6.997 19.342-0.038 26.814-7.339 7.775-19.494 7.775-26.833 0z"/>
<glyph unicode="" horiz-adv-x="801" d="M400.696 938.667c220.936 0 400.696-179.762 400.696-400.725 0-73.327-48.442-170.060-114.443-267.284l-12.573-18.23c-8.509-12.15-17.263-24.284-26.201-36.36l-13.537-18.063c-2.277-3.001-4.563-5.997-6.858-8.988l-13.866-17.866-14.028-17.693-14.146-17.487-14.218-17.246-14.245-16.973-14.227-16.665c-2.367-2.75-4.732-5.486-7.092-8.207l-14.115-16.141-13.983-15.75-13.807-15.325-13.585-14.867-13.318-14.375-19.377-20.567-12.452-12.999-12.027-12.389-22.597-22.816-22.595 22.816-12.026 12.389-12.452 12.999-12.832 13.574-19.862 21.368-13.585 14.867-20.779 23.15-14.054 15.95-14.163 16.324-14.227 16.665-14.245 16.973-14.218 17.246-14.146 17.487-14.028 17.693c-2.326 2.964-4.645 5.936-6.956 8.914l-13.768 17.94c-2.277 3.001-4.544 6.008-6.8 9.018l-13.405 18.112c-81.789 111.947-146.556 228.022-146.556 312.807 0 220.963 179.746 400.725 400.696 400.725z"/>
<glyph unicode="" horiz-adv-x="801" d="M400.696 916.406c-208.654 0-378.435-169.794-378.435-378.464 0-58.126 34.605-137.818 91.527-226.969l10.931-16.824c1.865-2.821 3.75-5.651 5.656-8.489l11.682-17.123 12.16-17.3c6.197-8.692 12.566-17.443 19.098-26.244l13.277-17.666 13.692-17.781c2.316-2.972 4.648-5.948 6.996-8.928l14.281-17.921 14.651-17.992c2.472-3.004 4.958-6.009 7.459-9.017l15.172-18.065 15.497-18.092 15.804-18.101c2.659-3.017 5.329-6.033 8.012-9.048l16.231-18.081 16.493-18.045 16.737-17.992 16.963-17.921 17.171-17.833c2.878-2.964 5.764-5.923 8.658-8.877l10.263-10.436 19.215 19.566 17.417 18.093c5.771 6.047 11.506 12.11 17.202 18.184l16.969 18.257c2.808 3.048 5.605 6.098 8.391 9.15l16.584 18.331c2.741 3.058 5.471 6.117 8.188 9.176l16.156 18.363 15.848 18.362 15.52 18.342c2.558 3.054 5.102 6.107 7.632 9.158l14.994 18.277c2.468 3.041 4.921 6.080 7.358 9.115l14.425 18.17c2.371 3.021 4.726 6.038 7.063 9.051l13.814 18.022 13.383 17.9c4.387 5.944 8.699 11.865 12.934 17.759l12.465 17.6c73.347 105.086 120.378 200.574 122.8 268.435l0.098 5.435c0 208.665-169.79 378.464-378.435 378.464z"/>
<glyph unicode="" horiz-adv-x="801" d="M387.77 848.187h25.851c171.328 0 310.216-138.888 310.216-310.216v0c0-171.328-138.888-310.216-310.216-310.216h-25.851c-171.328 0-310.216 138.888-310.216 310.216v0c0 171.328 138.888 310.216 310.216 310.216z"/>
</font>
</defs>
</svg>
